<?xml version="1.0" encoding="UTF-8" standalone="no"?>
<svg width="81px" height="55px" viewBox="0 0 81 55" version="1.1" xmlns="http://www.w3.org/2000/svg" xmlns:xlink="http://www.w3.org/1999/xlink">
    <!-- Generator: Sketch 49.1 (51147) - http://www.bohemiancoding.com/sketch -->
    <title>Group 38 Copy 3</title>
    <desc>Created with Sketch.</desc>
    <defs></defs>
    <g id="Page-1" stroke="none" stroke-width="1" fill="none" fill-rule="evenodd" opacity="0.3">
        <g id="info-referral" transform="translate(-1017.000000, -1576.000000)" fill="#505B69">
            <g id="Group" transform="translate(987.000000, 1531.000000)">
                <g id="Group-38-Copy-3" transform="translate(30.000000, 45.000000)">
                    <path d="M6.1779661,3.43220339 C4.85107859,3.43220339 3.77542373,4.50785825 3.77542373,5.83474576 L3.77542373,36.7245763 C3.77542373,38.0514638 4.85107859,39.1271186 6.1779661,39.1271186 L62.4661017,39.1271186 C63.7929892,39.1271186 64.8686441,38.0514638 64.8686441,36.7245763 L64.8686441,5.83474576 C64.8686441,4.50785825 63.7929892,3.43220339 62.4661017,3.43220339 L6.1779661,3.43220339 Z M6.1779661,0 L62.4661017,0 C65.6885428,0 68.3008475,2.61230466 68.3008475,5.83474576 L68.3008475,36.7245763 C68.3008475,39.9470174 65.6885428,42.559322 62.4661017,42.559322 L6.1779661,42.559322 C2.955525,42.559322 0.343220339,39.9470174 0.343220339,36.7245763 L0.343220339,5.83474576 C0.343220339,2.61230466 2.955525,0 6.1779661,0 Z" id="Rectangle-Copy-10" fill-rule="nonzero"></path>
                    <path d="M71.0466102,10.6398305 C71.0466102,9.69205371 71.8149351,8.92372881 72.7627119,8.92372881 C73.7104887,8.92372881 74.4788136,9.69205371 74.4788136,10.6398305 L74.4788136,42.3110952 C74.4788136,45.8974798 71.3633925,48.7372881 67.5954907,48.7372881 L10.2966102,48.7372881 C9.34883337,48.7372881 8.58050847,47.9689632 8.58050847,47.0211864 C8.58050847,46.0734096 9.34883337,45.3050847 10.2966102,45.3050847 L67.5954907,45.3050847 C69.5351438,45.3050847 71.0466102,43.9273337 71.0466102,42.3110952 L71.0466102,10.6398305 Z" id="Rectangle-Copy-11" fill-rule="nonzero"></path>
                    <path d="M77.2245763,16.8177966 C77.2245763,15.8700198 77.9929012,15.1016949 78.940678,15.1016949 C79.8884548,15.1016949 80.6567797,15.8700198 80.6567797,16.8177966 L80.6567797,48.4890613 C80.6567797,52.0754459 77.5413586,54.9152542 73.7734568,54.9152542 L16.4745763,54.9152542 C15.5267995,54.9152542 14.7584746,54.1469293 14.7584746,53.1991525 C14.7584746,52.2513757 15.5267995,51.4830508 16.4745763,51.4830508 L73.7734568,51.4830508 C75.7131099,51.4830508 77.2245763,50.1052998 77.2245763,48.4890613 L77.2245763,16.8177966 Z" id="Rectangle-Copy-12" fill-rule="nonzero"></path>
                    <path d="M34.6652542,35.0084746 C27.0830399,35.0084746 20.9364407,28.8618754 20.9364407,21.279661 C20.9364407,13.6974467 27.0830399,7.55084746 34.6652542,7.55084746 C42.2474686,7.55084746 48.3940678,13.6974467 48.3940678,21.279661 C48.3940678,28.8618754 42.2474686,35.0084746 34.6652542,35.0084746 Z M34.6652542,31.5762712 C40.351915,31.5762712 44.9618644,26.9663218 44.9618644,21.279661 C44.9618644,15.5930002 40.351915,10.9830508 34.6652542,10.9830508 C28.9785935,10.9830508 24.3686441,15.5930002 24.3686441,21.279661 C24.3686441,26.9663218 28.9785935,31.5762712 34.6652542,31.5762712 Z" id="Oval-3-Copy-5" fill-rule="nonzero"></path>
                    <path d="M2.05932203,15.4449153 L2.05932203,12.0127119 C7.74598281,12.0127119 12.3559322,7.40276247 12.3559322,1.71610169 L15.7881356,1.71610169 C15.7881356,9.29831606 9.6415364,15.4449153 2.05932203,15.4449153 Z" id="Oval-3-Copy-6" fill-rule="nonzero"></path>
                    <path d="M54.2288136,42.2161017 L54.2288136,38.7838983 C59.9154743,38.7838983 64.5254237,34.1739489 64.5254237,28.4872881 L67.9576271,28.4872881 C67.9576271,36.0695025 61.8110279,42.2161017 54.2288136,42.2161017 Z" id="Oval-3-Copy-7" fill-rule="nonzero" transform="translate(61.093220, 35.351695) rotate(-180.000000) translate(-61.093220, -35.351695) "></path>
                    <path d="M54.2288136,14.0720339 L54.2288136,10.6398305 C59.9154743,10.6398305 64.5254237,6.02988111 64.5254237,0.343220339 L67.9576271,0.343220339 C67.9576271,7.9254347 61.8110279,14.0720339 54.2288136,14.0720339 Z" id="Oval-3-Copy-8" fill-rule="nonzero" transform="translate(61.093220, 7.207627) rotate(-270.000000) translate(-61.093220, -7.207627) "></path>
                    <path d="M2.05932203,42.2161017 L2.05932203,38.7838983 C7.74598281,38.7838983 12.3559322,34.1739489 12.3559322,28.4872881 L15.7881356,28.4872881 C15.7881356,36.0695025 9.6415364,42.2161017 2.05932203,42.2161017 Z" id="Oval-3-Copy-9" fill-rule="nonzero" transform="translate(8.923729, 35.351695) rotate(-90.000000) translate(-8.923729, -35.351695) "></path>
                    <path d="M39.1919218,23.3373188 L37.2090981,23.3373188 C36.7637438,23.3373188 36.7233038,23.5287251 36.6632507,23.9384323 C36.5010235,24.9254543 35.5911689,25.5292283 34.4986336,25.5292283 C33.2442913,25.5292283 32.2347841,24.5068951 32.1534838,23.3341746 L34.9572033,23.3341746 C35.301224,23.3341746 35.543911,23.2111173 35.543911,22.7378982 L35.543911,22.1496031 C35.543911,21.67769 35.301224,21.5683219 34.9572033,21.5683219 L32.1334972,21.5683219 L32.1334972,20.6915388 L34.9572033,20.6915388 C35.301224,20.6915388 35.543911,20.5689168 35.543911,20.0952624 L35.543911,19.5069189 C35.543911,19.0345705 35.301224,18.9106425 34.9572033,18.9106425 L32.1739373,18.9106425 C32.315711,17.8415823 33.2915959,16.7151535 34.4854649,16.7151535 C35.5780002,16.7151535 36.1974896,17.1610426 36.6232777,17.8393572 C36.7850846,18.0863425 36.8054914,18.4762174 37.2304389,18.4762174 L39.1859913,18.4762174 C39.6513788,18.4762174 39.8135593,18.3042081 39.8135593,17.811592 C39.5504188,15.2015102 37.049019,14.0720339 34.5394939,14.0720339 C32.1530635,14.0720339 29.2054222,15.7448681 29.1445286,18.9102072 L28.0443349,18.9102072 C27.6807479,18.9102072 27.4576271,19.0332644 27.4576271,19.5064836 L27.4576271,20.094827 C27.4576271,20.5676108 27.6803276,20.6911034 28.0443349,20.6911034 L28.7442841,20.6911034 L28.7442841,21.5674512 L28.0443349,21.5674512 C27.6807479,21.5674512 27.4576271,21.6905085 27.4576271,22.1637276 L27.4576271,22.7383819 C27.4576271,23.210295 27.6803276,23.3346583 28.0443349,23.3346583 L29.1432678,23.3346583 L29.1432678,23.4175672 C29.1432678,26.6441931 32.0913293,28.1930993 34.4986336,28.1930993 C37.008112,28.1930993 39.7986161,26.6322937 39.7986161,23.9798868 C39.7986161,23.4867869 39.6368559,23.3373188 39.1919218,23.3373188 Z" id="Path-Copy"></path>
                </g>
            </g>
        </g>
    </g>
</svg>