<svg width="82" height="100" viewBox="0 0 82 100" xmlns="http://www.w3.org/2000/svg"><title>Group 6</title><g id="Page-1" fill="none" fill-rule="evenodd"><g id="info-presskit" transform="translate(-451 -1191)"><g id="Group-22" transform="translate(402 1151)"><g id="Group-6" transform="translate(49 40)"><g id="Group-5-Copy" transform="translate(5.234)" fill="#00CDEC"><path d="M46.40858,56.7585664 C43.7216328,56.7147469 39.7276886,56.6930727 35.7332707,56.6930727 C31.7402739,56.6930727 27.7477509,56.7147469 25.0608037,56.7585664 L25.0608037,43.3031378 L35.7346918,33.9507268 L46.40858,43.3031378 L46.40858,56.7585664 Z M50.9293022,38.889614 L35.7346918,25.5745965 L20.5419763,38.8891429 C19.4472064,39.774015 18.7977345,41.1409023 18.7977345,42.5765815 L18.7977345,58.4307769 C18.7977345,59.707198 19.3117221,60.9435689 20.2080028,61.8237293 C21.0933879,62.6949373 22.3122728,63.1661153 23.4823644,63.1194687 C28.1788373,62.9875388 43.2919676,62.9889524 47.9884405,63.1194687 C48.0296542,63.1213534 48.0727629,63.1218246 48.1153978,63.1218246 C49.2944901,63.1218246 50.4077351,62.6633684 51.2623283,61.8237293 C52.158609,60.9435689 52.6725966,59.7062556 52.6725966,58.4307769 L52.6725966,42.5765815 C52.6725966,41.1423158 52.0240721,39.7749574 50.9293022,38.889614 Z M55.8034206,58.4307769 C55.8034206,62.7613734 52.3537822,66.2843709 48.1452422,66.2843709 L47.8851692,66.282015 C45.7107885,66.2207619 41.0616878,66.18401 35.7356393,66.18401 C30.3830624,66.18401 25.7206975,66.2217043 23.6259019,66.2810727 L23.3596706,66.2843709 C19.1174964,66.2843709 15.6669105,62.7613734 15.6669105,58.4307769 L15.6669105,42.5765815 C15.6669105,40.2418947 16.7266251,37.9661053 18.5599264,36.4371328 L35.7356393,21.3877093 L52.9696198,36.4880201 C54.7437061,37.9661053 55.8034206,40.2418947 55.8034206,42.5765815 L55.8034206,58.4307769 Z M57.0147259,31.6584461 L35.7356393,13.0120501 L14.5152941,31.6075589 C11.2665135,34.3144762 9.40336762,38.3119499 9.40336762,42.5765815 L9.40336762,58.4307769 C9.40336762,66.2495038 15.6635945,72.610406 23.3914099,72.610406 L23.7452797,72.6056942 C25.8429176,72.5472682 30.4370666,72.5100451 35.7356393,72.5100451 C41.0294747,72.5100451 45.6293084,72.5472682 47.7383156,72.6056942 L48.111608,72.610406 C55.8067366,72.610406 62.0674372,66.2495038 62.0674372,58.4307769 L62.0674372,42.5765815 C62.0674372,38.3119499 60.2047651,34.3144762 57.0147259,31.6584461 Z M65.1992087,58.4307769 C65.1992087,67.9933333 57.532977,75.7738947 48.1466634,75.7738947 L47.62557,75.7682406 C45.550197,75.7093434 41.0005777,75.6735338 35.7356393,75.6735338 C30.4427513,75.6735338 25.8827102,75.7093434 23.8793428,75.7672982 L23.455836,75.7738947 C13.979989,75.7738947 6.27112245,67.9933333 6.27112245,58.4307769 L6.27112245,42.5765815 C6.27112245,37.4077594 8.51750881,32.5475589 12.4782925,29.203609 L35.7356393,8.82469173 L59.0365684,29.2413033 C62.9528223,32.5475589 65.1992087,37.4077594 65.1992087,42.5765815 L65.1992087,58.4307769 Z M63.0963599,24.4249223 L35.7356393,0.449032581 L8.41850106,24.3872281 C3.07303001,28.8978145 0.00757954065,35.5282306 0.00757954065,42.5765815 L0.00757954065,58.4307769 C0.00757954065,71.4814637 10.5260871,82.0994586 23.4970497,82.0994586 L24.0096162,82.092391 C26.0049303,82.0349073 30.497703,81.9995689 35.7356393,81.9995689 C40.9683647,81.9995689 45.4672958,82.0349073 47.4754003,82.092391 L48.111608,82.0994586 C60.9878264,82.0994586 71.4627516,71.4814637 71.4627516,58.4307769 L71.4627516,42.5765815 C71.4627516,35.5291729 68.3968274,28.8992281 63.0963599,24.4249223 Z" id="Fill-1"/></g><g id="Group-2-Copy" transform="translate(0 91.228)" fill="#031327"><path id="Fill-3" d="M4.94296 4.97968606L1.69248 4.97968606 1.69248 7.14819945 5.50712 7.14819945 5.50712 8.48799631 0 8.48799631 0 0.393351801 5.49587429 0.393351801 5.49587429 1.74422899 1.69248 1.74422899 1.69248 3.67313019 4.94296 3.67313019 4.94296 4.97968606"/><path d="M11.8825029,6.36426593 C11.8825029,6.04939982 11.7695771,5.80701754 11.5437257,5.63850416 C11.3183429,5.46999077 10.9120914,5.29178209 10.3249714,5.10480148 C9.73832,4.91828255 9.27349714,4.73314866 8.93144,4.55170822 C7.99851429,4.05540166 7.53181714,3.38596491 7.53181714,2.54478301 C7.53181714,2.10757156 7.65692571,1.71745152 7.90714286,1.3744229 C8.15736,1.03185596 8.51628571,0.764081256 8.98485714,0.5710988 C9.45342857,0.378578024 9.97869714,0.282086796 10.5620686,0.282086796 C11.1491886,0.282086796 11.6716457,0.386426593 12.1308457,0.596029548 C12.5895771,0.805170822 12.9456914,1.10110803 13.2001257,1.48291782 C13.4540914,1.86426593 13.5806057,2.29824561 13.5806057,2.78393352 L11.8881257,2.78393352 C11.8881257,2.41320406 11.7695771,2.12511542 11.53248,1.91966759 C11.2953829,1.7132964 10.9626971,1.61080332 10.5339543,1.61080332 C10.1202057,1.61080332 9.79829714,1.6966759 9.56869714,1.86934441 C9.33956571,2.04155125 9.22476571,2.26823638 9.22476571,2.55032318 C9.22476571,2.81348107 9.35924571,3.03416436 9.62820571,3.21144968 C9.89716571,3.38965836 10.2931086,3.55632502 10.8155657,3.71237304 C11.7789486,3.9976916 12.4804,4.35180055 12.9208571,4.77423823 C13.3608457,5.1966759 13.5806057,5.72299169 13.5806057,6.3531856 C13.5806057,7.05401662 13.3121143,7.60295476 12.7741943,8.00138504 C12.2358057,8.40027701 11.5118629,8.59926131 10.6018971,8.59926131 C9.96932571,8.59926131 9.39392,8.48522622 8.87474286,8.25715605 C8.35556571,8.02954755 7.95962286,7.71698984 7.68691429,7.32040628 C7.41420571,6.92382271 7.27785143,6.46398892 7.27785143,5.94136657 L8.97642286,5.94136657 C8.97642286,6.83518006 9.51809143,7.28162512 10.6018971,7.28162512 C11.0039314,7.28162512 11.3183429,7.20129271 11.5437257,7.03970452 C11.7695771,6.87857802 11.8825029,6.65327793 11.8825029,6.36426593" id="Fill-4"/><path id="Fill-5" d="M21.6386286 1.74422899L19.1219314 1.74422899 19.1219314 8.48799631 17.4289829 8.48799631 17.4289829 1.74422899 14.9464914 1.74422899 14.9464914 0.393351801 21.6386286 0.393351801 21.6386286 1.74422899"/><path d="M25.01984,5.46906741 L27.0740571,5.46906741 L26.0413257,2.43951985 L25.01984,5.46906741 Z M27.5309143,6.82040628 L24.5629829,6.82040628 L23.9988229,8.48799631 L22.1985714,8.48799631 L25.2569371,0.393351801 L26.8257143,0.393351801 L29.9009486,8.48799631 L28.1011657,8.48799631 L27.5309143,6.82040628 Z" id="Fill-6"/><path id="Fill-7" d="M36.8667314 1.74422899L34.3505029 1.74422899 34.3505029 8.48799631 32.6575543 8.48799631 32.6575543 1.74422899 30.1745943 1.74422899 30.1745943 0.393351801 36.8667314 0.393351801 36.8667314 1.74422899"/><path id="Fill-8" d="M44.2762514 4.97968606L41.02624 4.97968606 41.02624 7.14819945 44.84088 7.14819945 44.84088 8.48799631 39.3332914 8.48799631 39.3332914 0.393351801 44.8291657 0.393351801 44.8291657 1.74422899 41.02624 1.74422899 41.02624 3.67313019 44.2762514 3.67313019 44.2762514 4.97968606"/><path d="M53.9452229,7.46491228 C53.6406514,7.8245614 53.2100343,8.10341644 52.6533714,8.30193906 C52.09624,8.49953832 51.4796,8.59926131 50.8025143,8.59926131 C50.0912229,8.59926131 49.4680229,8.44598338 48.9319771,8.14035088 C48.3959314,7.83471837 47.9821829,7.3910434 47.6902629,6.80886427 C47.3988114,6.22760849 47.2493371,5.54339797 47.24184,4.75761773 L47.24184,4.20729455 C47.24184,3.39935365 47.3800686,2.69944598 47.6565257,2.10849492 C47.9329829,1.51708218 48.3317371,1.06509695 48.8527886,0.751615882 C49.37384,0.438596491 49.9843886,0.282086796 50.6839657,0.282086796 C51.6581257,0.282086796 52.4200229,0.511080332 52.9691886,0.968605725 C53.5183543,1.42613112 53.8440114,2.09279778 53.9452229,2.96722068 L52.2977257,2.96722068 C52.2227543,2.50369344 52.0559429,2.16481994 51.7982286,1.94967682 C51.5405143,1.73499538 51.1862743,1.62742382 50.7345714,1.62742382 C50.1591657,1.62742382 49.7210514,1.84072022 49.41976,2.26638966 C49.1189371,2.69298246 48.9666514,3.32686981 48.9629029,4.16805171 L48.9629029,4.68513389 C48.9629029,5.53416436 49.1264343,6.17497692 49.4539657,6.6089566 C49.7810286,7.04247461 50.2608457,7.25946445 50.89248,7.25946445 C51.5283314,7.25946445 51.9819086,7.12603878 52.2527429,6.85918744 L52.2527429,5.46352724 L50.71208,5.46352724 L50.71208,4.23499538 L53.9452229,4.23499538 L53.9452229,7.46491228" id="Fill-9"/><path d="M63.40896,0.393351801 L63.40896,5.72483841 C63.40896,6.61080332 63.1278171,7.31117267 62.5650629,7.82640813 C62.0027771,8.34164358 61.23432,8.59926131 60.26016,8.59926131 C59.3009943,8.59926131 58.5390971,8.34903047 57.9749371,7.84856879 C57.4107771,7.34810711 57.1226057,6.66066482 57.1118286,5.78624192 L57.1118286,0.393351801 L58.8043086,0.393351801 L58.8043086,5.73591874 C58.8043086,6.26638966 58.9331657,6.65235457 59.19088,6.89519852 C59.4485943,7.13804247 59.8051771,7.25946445 60.26016,7.25946445 C61.2118286,7.25946445 61.6953943,6.76685134 61.7103886,5.78070175 L61.7103886,0.393351801 L63.40896,0.393351801" id="Fill-10"/><path d="M68.4170514,4.17359187 L69.7824686,4.17359187 C70.2074629,4.17359187 70.5368686,4.06740536 70.7697486,3.85410896 C71.0030971,3.64081256 71.1197714,3.34718375 71.1197714,2.97322253 C71.1197714,2.59141274 71.0096571,2.29085873 70.7898971,2.07248384 C70.5696686,1.85364728 70.2318286,1.74422899 69.7768457,1.74422899 L68.4170514,1.74422899 L68.4170514,4.17359187 Z M69.7656,5.52493075 L68.4170514,5.52493075 L68.4170514,8.48799631 L66.7241029,8.48799631 L66.7241029,0.393351801 L69.7768457,0.393351801 C70.7472571,0.393351801 71.4960343,0.606186519 72.0227086,1.03277932 C72.5493829,1.45844875 72.81272,2.06094183 72.81272,2.83933518 C72.81272,3.39150508 72.69136,3.85226223 72.44864,4.22114497 C72.20592,4.5900277 71.8380914,4.88319483 71.3456229,5.10203139 L73.1229143,8.4099723 L73.1229143,8.48799631 L71.3062629,8.48799631 L69.7656,5.52493075 Z" id="Fill-11"/><path d="M81.9390857,0.393351801 L81.9390857,5.72483841 C81.9390857,6.61080332 81.6579429,7.31117267 81.0951886,7.82640813 C80.5329029,8.34164358 79.7644457,8.59926131 78.7902857,8.59926131 C77.83112,8.59926131 77.0696914,8.34903047 76.5050629,7.84856879 C75.9409029,7.34810711 75.6532,6.66066482 75.6419543,5.78624192 L75.6419543,0.393351801 L77.3344343,0.393351801 L77.3344343,5.73591874 C77.3344343,6.26638966 77.4632914,6.65235457 77.7210057,6.89519852 C77.97872,7.13804247 78.3353029,7.25946445 78.7902857,7.25946445 C79.7419543,7.25946445 80.22552,6.76685134 80.2405143,5.78070175 L80.2405143,0.393351801 L81.9390857,0.393351801" id="Fill-12"/></g></g></g></g></g></svg>