<svg width="82" height="100" viewBox="0 0 82 100" xmlns="http://www.w3.org/2000/svg"><title>Group 7</title><g id="Page-1" fill="none" fill-rule="evenodd"><g id="info-presskit" transform="translate(-655 -1191)"><g id="Group-21" transform="translate(606 1151)"><g id="Group-7" transform="translate(49 40)"><g id="Group-5-Copy" transform="translate(5.234)" fill="#00CDEC"><path d="M46.40858,56.7585664 C43.7216328,56.7147469 39.7276886,56.6930727 35.7332707,56.6930727 C31.7402739,56.6930727 27.7477509,56.7147469 25.0608037,56.7585664 L25.0608037,43.3031378 L35.7346918,33.9507268 L46.40858,43.3031378 L46.40858,56.7585664 Z M50.9293022,38.889614 L35.7346918,25.5745965 L20.5419763,38.8891429 C19.4472064,39.774015 18.7977345,41.1409023 18.7977345,42.5765815 L18.7977345,58.4307769 C18.7977345,59.707198 19.3117221,60.9435689 20.2080028,61.8237293 C21.0933879,62.6949373 22.3122728,63.1661153 23.4823644,63.1194687 C28.1788373,62.9875388 43.2919676,62.9889524 47.9884405,63.1194687 C48.0296542,63.1213534 48.0727629,63.1218246 48.1153978,63.1218246 C49.2944901,63.1218246 50.4077351,62.6633684 51.2623283,61.8237293 C52.158609,60.9435689 52.6725966,59.7062556 52.6725966,58.4307769 L52.6725966,42.5765815 C52.6725966,41.1423158 52.0240721,39.7749574 50.9293022,38.889614 Z M55.8034206,58.4307769 C55.8034206,62.7613734 52.3537822,66.2843709 48.1452422,66.2843709 L47.8851692,66.282015 C45.7107885,66.2207619 41.0616878,66.18401 35.7356393,66.18401 C30.3830624,66.18401 25.7206975,66.2217043 23.6259019,66.2810727 L23.3596706,66.2843709 C19.1174964,66.2843709 15.6669105,62.7613734 15.6669105,58.4307769 L15.6669105,42.5765815 C15.6669105,40.2418947 16.7266251,37.9661053 18.5599264,36.4371328 L35.7356393,21.3877093 L52.9696198,36.4880201 C54.7437061,37.9661053 55.8034206,40.2418947 55.8034206,42.5765815 L55.8034206,58.4307769 Z M57.0147259,31.6584461 L35.7356393,13.0120501 L14.5152941,31.6075589 C11.2665135,34.3144762 9.40336762,38.3119499 9.40336762,42.5765815 L9.40336762,58.4307769 C9.40336762,66.2495038 15.6635945,72.610406 23.3914099,72.610406 L23.7452797,72.6056942 C25.8429176,72.5472682 30.4370666,72.5100451 35.7356393,72.5100451 C41.0294747,72.5100451 45.6293084,72.5472682 47.7383156,72.6056942 L48.111608,72.610406 C55.8067366,72.610406 62.0674372,66.2495038 62.0674372,58.4307769 L62.0674372,42.5765815 C62.0674372,38.3119499 60.2047651,34.3144762 57.0147259,31.6584461 Z M65.1992087,58.4307769 C65.1992087,67.9933333 57.532977,75.7738947 48.1466634,75.7738947 L47.62557,75.7682406 C45.550197,75.7093434 41.0005777,75.6735338 35.7356393,75.6735338 C30.4427513,75.6735338 25.8827102,75.7093434 23.8793428,75.7672982 L23.455836,75.7738947 C13.979989,75.7738947 6.27112245,67.9933333 6.27112245,58.4307769 L6.27112245,42.5765815 C6.27112245,37.4077594 8.51750881,32.5475589 12.4782925,29.203609 L35.7356393,8.82469173 L59.0365684,29.2413033 C62.9528223,32.5475589 65.1992087,37.4077594 65.1992087,42.5765815 L65.1992087,58.4307769 Z M63.0963599,24.4249223 L35.7356393,0.449032581 L8.41850106,24.3872281 C3.07303001,28.8978145 0.00757954065,35.5282306 0.00757954065,42.5765815 L0.00757954065,58.4307769 C0.00757954065,71.4814637 10.5260871,82.0994586 23.4970497,82.0994586 L24.0096162,82.092391 C26.0049303,82.0349073 30.497703,81.9995689 35.7356393,81.9995689 C40.9683647,81.9995689 45.4672958,82.0349073 47.4754003,82.092391 L48.111608,82.0994586 C60.9878264,82.0994586 71.4627516,71.4814637 71.4627516,58.4307769 L71.4627516,42.5765815 C71.4627516,35.5291729 68.3968274,28.8992281 63.0963599,24.4249223 Z" id="Fill-1"/></g><path id="Fill-3" fill="#FFF" d="M4.94296 96.2077562L1.69248 96.2077562 1.69248 98.3762696 5.50712 98.3762696 5.50712 99.7160665 0 99.7160665 0 91.621422 5.49587429 91.621422 5.49587429 92.9722992 1.69248 92.9722992 1.69248 94.9012004 4.94296 94.9012004 4.94296 96.2077562"/><path d="M11.8825029,97.5923361 C11.8825029,97.27747 11.7695771,97.0350877 11.5437257,96.8665743 C11.3183429,96.6980609 10.9120914,96.5198523 10.3249714,96.3328717 C9.73832,96.1463527 9.27349714,95.9612188 8.93144,95.7797784 C7.99851429,95.2834718 7.53181714,94.6140351 7.53181714,93.7728532 C7.53181714,93.3356417 7.65692571,92.9455217 7.90714286,92.6024931 C8.15736,92.2599261 8.51628571,91.9921514 8.98485714,91.799169 C9.45342857,91.6066482 9.97869714,91.510157 10.5620686,91.510157 C11.1491886,91.510157 11.6716457,91.6144968 12.1308457,91.8240997 C12.5895771,92.033241 12.9456914,92.3291782 13.2001257,92.710988 C13.4540914,93.0923361 13.5806057,93.5263158 13.5806057,94.0120037 L11.8881257,94.0120037 C11.8881257,93.6412742 11.7695771,93.3531856 11.53248,93.1477378 C11.2953829,92.9413666 10.9626971,92.8388735 10.5339543,92.8388735 C10.1202057,92.8388735 9.79829714,92.9247461 9.56869714,93.0974146 C9.33956571,93.2696214 9.22476571,93.4963066 9.22476571,93.7783934 C9.22476571,94.0415512 9.35924571,94.2622345 9.62820571,94.4395199 C9.89716571,94.6177285 10.2931086,94.7843952 10.8155657,94.9404432 C11.7789486,95.2257618 12.4804,95.5798707 12.9208571,96.0023084 C13.3608457,96.4247461 13.5806057,96.9510619 13.5806057,97.5812558 C13.5806057,98.2820868 13.3121143,98.8310249 12.7741943,99.2294552 C12.2358057,99.6283472 11.5118629,99.8273315 10.6018971,99.8273315 C9.96932571,99.8273315 9.39392,99.7132964 8.87474286,99.4852262 C8.35556571,99.2576177 7.95962286,98.94506 7.68691429,98.5484765 C7.41420571,98.1518929 7.27785143,97.6920591 7.27785143,97.1694367 L8.97642286,97.1694367 C8.97642286,98.0632502 9.51809143,98.5096953 10.6018971,98.5096953 C11.0039314,98.5096953 11.3183429,98.4293629 11.5437257,98.2677747 C11.7695771,98.1066482 11.8825029,97.8813481 11.8825029,97.5923361" id="Fill-4" fill="#FFF"/><path id="Fill-5" fill="#FFF" d="M21.6386286 92.9722992L19.1219314 92.9722992 19.1219314 99.7160665 17.4289829 99.7160665 17.4289829 92.9722992 14.9464914 92.9722992 14.9464914 91.621422 21.6386286 91.621422 21.6386286 92.9722992"/><path d="M25.01984,96.6971376 L27.0740571,96.6971376 L26.0413257,93.66759 L25.01984,96.6971376 Z M27.5309143,98.0484765 L24.5629829,98.0484765 L23.9988229,99.7160665 L22.1985714,99.7160665 L25.2569371,91.621422 L26.8257143,91.621422 L29.9009486,99.7160665 L28.1011657,99.7160665 L27.5309143,98.0484765 Z" id="Fill-6" fill="#FFF"/><path id="Fill-7" fill="#FFF" d="M36.8667314 92.9722992L34.3505029 92.9722992 34.3505029 99.7160665 32.6575543 99.7160665 32.6575543 92.9722992 30.1745943 92.9722992 30.1745943 91.621422 36.8667314 91.621422 36.8667314 92.9722992"/><path id="Fill-8" fill="#FFF" d="M44.2762514 96.2077562L41.02624 96.2077562 41.02624 98.3762696 44.84088 98.3762696 44.84088 99.7160665 39.3332914 99.7160665 39.3332914 91.621422 44.8291657 91.621422 44.8291657 92.9722992 41.02624 92.9722992 41.02624 94.9012004 44.2762514 94.9012004 44.2762514 96.2077562"/><path d="M53.9452229,98.6929825 C53.6406514,99.0526316 53.2100343,99.3314866 52.6533714,99.5300092 C52.09624,99.7276085 51.4796,99.8273315 50.8025143,99.8273315 C50.0912229,99.8273315 49.4680229,99.6740536 48.9319771,99.3684211 C48.3959314,99.0627886 47.9821829,98.6191136 47.6902629,98.0369344 C47.3988114,97.4556787 47.2493371,96.7714681 47.24184,95.9856879 L47.24184,95.4353647 C47.24184,94.6274238 47.3800686,93.9275162 47.6565257,93.3365651 C47.9329829,92.7451524 48.3317371,92.2931671 48.8527886,91.9796861 C49.37384,91.6666667 49.9843886,91.510157 50.6839657,91.510157 C51.6581257,91.510157 52.4200229,91.7391505 52.9691886,92.1966759 C53.5183543,92.6542013 53.8440114,93.320868 53.9452229,94.1952909 L52.2977257,94.1952909 C52.2227543,93.7317636 52.0559429,93.3928901 51.7982286,93.177747 C51.5405143,92.9630656 51.1862743,92.855494 50.7345714,92.855494 C50.1591657,92.855494 49.7210514,93.0687904 49.41976,93.4944598 C49.1189371,93.9210526 48.9666514,94.55494 48.9629029,95.3961219 L48.9629029,95.9132041 C48.9629029,96.7622345 49.1264343,97.4030471 49.4539657,97.8370268 C49.7810286,98.2705448 50.2608457,98.4875346 50.89248,98.4875346 C51.5283314,98.4875346 51.9819086,98.354109 52.2527429,98.0872576 L52.2527429,96.6915974 L50.71208,96.6915974 L50.71208,95.4630656 L53.9452229,95.4630656 L53.9452229,98.6929825" id="Fill-9" fill="#FFF"/><path d="M63.40896,91.621422 L63.40896,96.9529086 C63.40896,97.8388735 63.1278171,98.5392428 62.5650629,99.0544783 C62.0027771,99.5697138 61.23432,99.8273315 60.26016,99.8273315 C59.3009943,99.8273315 58.5390971,99.5771006 57.9749371,99.076639 C57.4107771,98.5761773 57.1226057,97.888735 57.1118286,97.0143121 L57.1118286,91.621422 L58.8043086,91.621422 L58.8043086,96.9639889 C58.8043086,97.4944598 58.9331657,97.8804247 59.19088,98.1232687 C59.4485943,98.3661127 59.8051771,98.4875346 60.26016,98.4875346 C61.2118286,98.4875346 61.6953943,97.9949215 61.7103886,97.0087719 L61.7103886,91.621422 L63.40896,91.621422" id="Fill-10" fill="#FFF"/><path d="M68.4170514,95.401662 L69.7824686,95.401662 C70.2074629,95.401662 70.5368686,95.2954755 70.7697486,95.0821791 C71.0030971,94.8688827 71.1197714,94.5752539 71.1197714,94.2012927 C71.1197714,93.8194829 71.0096571,93.5189289 70.7898971,93.300554 C70.5696686,93.0817175 70.2318286,92.9722992 69.7768457,92.9722992 L68.4170514,92.9722992 L68.4170514,95.401662 Z M69.7656,96.7530009 L68.4170514,96.7530009 L68.4170514,99.7160665 L66.7241029,99.7160665 L66.7241029,91.621422 L69.7768457,91.621422 C70.7472571,91.621422 71.4960343,91.8342567 72.0227086,92.2608495 C72.5493829,92.6865189 72.81272,93.289012 72.81272,94.0674054 C72.81272,94.6195753 72.69136,95.0803324 72.44864,95.4492151 C72.20592,95.8180979 71.8380914,96.111265 71.3456229,96.3301016 L73.1229143,99.6380425 L73.1229143,99.7160665 L71.3062629,99.7160665 L69.7656,96.7530009 Z" id="Fill-11" fill="#FFF"/><path d="M81.9390857,91.621422 L81.9390857,96.9529086 C81.9390857,97.8388735 81.6579429,98.5392428 81.0951886,99.0544783 C80.5329029,99.5697138 79.7644457,99.8273315 78.7902857,99.8273315 C77.83112,99.8273315 77.0696914,99.5771006 76.5050629,99.076639 C75.9409029,98.5761773 75.6532,97.888735 75.6419543,97.0143121 L75.6419543,91.621422 L77.3344343,91.621422 L77.3344343,96.9639889 C77.3344343,97.4944598 77.4632914,97.8804247 77.7210057,98.1232687 C77.97872,98.3661127 78.3353029,98.4875346 78.7902857,98.4875346 C79.7419543,98.4875346 80.22552,97.9949215 80.2405143,97.0087719 L80.2405143,91.621422 L81.9390857,91.621422" id="Fill-12" fill="#FFF"/></g></g></g></g></svg>