<svg width="103" height="60" viewBox="0 0 103 60" xmlns="http://www.w3.org/2000/svg"><title>Group 26</title><g id="Page-1" fill="none" fill-rule="evenodd"><g id="info-presskit" transform="translate(-849 -1007)"><g id="Group-3" transform="translate(810 947)"><g id="Group-13"><g id="Group-26" transform="translate(39 60)"><path d="M57.3454922,27.8673004 C56.0102683,27.8454098 54.0249284,27.8350726 52.0402024,27.8350726 C50.0560903,27.8350726 48.0713644,27.8454098 46.7361404,27.8673004 L46.7361404,21.2083114 L52.0408163,16.5796725 L57.3454922,21.2083114 L57.3454922,27.8673004 Z M59.5917379,19.0241192 L52.0408163,12.4344504 L44.4905086,19.0235112 C43.9465967,19.4613225 43.6236874,20.1381059 43.6236874,20.8483332 L43.6236874,28.6948855 C43.6236874,29.3266716 43.8790681,29.9383913 44.3247567,30.3737704 C44.7649201,30.8048929 45.3702217,31.0383923 45.9521951,31.0152856 C48.286228,30.950222 55.7966325,30.9508301 58.1306653,31.0152856 C58.1509239,31.0158937 58.1717963,31.0165018 58.1938966,31.0165018 C58.7795535,31.0165018 59.3326738,30.7890831 59.756876,30.3737704 C60.2025645,29.9383913 60.4579453,29.3260635 60.4579453,28.6948855 L60.4579453,20.8483332 C60.4579453,20.138714 60.1362638,19.4619306 59.5917379,19.0241192 Z M62.0141718,28.6948855 C62.0141718,30.8377288 60.2995601,32.5816773 58.2080162,32.5816773 L58.079098,32.5804612 C56.9980271,32.5500576 54.6885501,32.5318155 52.0414302,32.5318155 C49.3814186,32.5318155 47.0645748,32.5500576 46.0227932,32.5798531 L45.8908055,32.5816773 C43.7826864,32.5816773 42.0680747,30.8377288 42.0680747,28.6948855 L42.0680747,20.8483332 C42.0680747,19.6929977 42.5941837,18.5668496 43.5058193,17.8104089 L52.0414302,10.3621433 L60.6058942,17.8353398 C61.487449,18.5668496 62.0141718,19.6929977 62.0141718,20.8483332 L62.0141718,28.6948855 Z M62.6164039,15.4450115 L52.0414302,6.21692115 L41.4953097,15.4200805 C39.880763,16.7596617 38.9556217,18.7383257 38.9556217,20.8483332 L38.9556217,28.6948855 C38.9556217,32.5640433 42.066233,35.7120285 45.9067668,35.7120285 L46.0823411,35.7102043 C47.1247366,35.6810168 49.4078161,35.6627747 52.0414302,35.6627747 C54.6719749,35.6627747 56.9581238,35.6810168 58.0060444,35.7102043 L58.1920549,35.7120285 C62.0153996,35.7120285 65.1266249,32.5640433 65.1266249,28.6948855 L65.1266249,20.8483332 C65.1266249,18.7383257 64.2014835,16.7596617 62.6164039,15.4450115 Z M66.6834653,28.6948855 C66.6834653,33.4268965 62.8736263,37.2778121 58.209244,37.2778121 L57.9501799,37.2747718 C56.9182206,37.2461924 54.6578553,37.2279503 52.0414302,37.2279503 C49.4108856,37.2279503 47.1443813,37.2461924 46.1492558,37.2741637 L45.9386894,37.2778121 C41.2301066,37.2778121 37.3987812,33.4268965 37.3987812,28.6948855 L37.3987812,20.8483332 C37.3987812,18.2901772 38.5154582,15.8852551 40.483609,14.230085 L52.0414302,4.14522217 L63.6201239,14.2489352 C65.5667884,15.8852551 66.6834653,18.2901772 66.6834653,20.8483332 L66.6834653,28.6948855 Z M65.6386142,11.8652956 L52.0414302,0 L38.4657326,11.8464454 C35.8094043,14.0786752 34.2857143,17.3604361 34.2857143,20.8483332 L34.2857143,28.6948855 C34.2857143,35.153819 39.5136532,40.4081633 45.9595619,40.4081633 L46.2137149,40.4045148 C47.2057709,40.3765436 49.4385109,40.3589095 52.0414302,40.3589095 C54.6412801,40.3589095 56.8777034,40.3765436 57.8752845,40.4045148 L58.1920549,40.4081633 C64.5900797,40.4081633 69.7959184,35.153819 69.7959184,28.6948855 L69.7959184,20.8483332 C69.7959184,17.3604361 68.2728422,14.0792833 65.6386142,11.8652956 Z" id="Fill-1" fill="#00CDEC"/><path id="Fill-3" fill="#FFF" d="M6.44309244 54.8996778L2.20658824 54.8996778 2.20658824 57.955102 7.17882353 57.955102 7.17882353 59.8433942 0 59.8433942 0 48.4356606 7.16369748 48.4356606 7.16369748 50.33942 2.20658824 50.33942 2.20658824 53.0584318 6.44309244 53.0584318 6.44309244 54.8996778"/><path d="M15.3589916,56.8504834 C15.3589916,56.4064447 15.2119664,56.0655209 14.917916,55.8277121 C14.6238655,55.5905478 14.0938487,55.3392052 13.3290756,55.0756176 C12.5636975,54.8120301 11.9580504,54.5516649 11.5121345,54.295811 C10.296,53.5965628 9.68793277,52.6537057 9.68793277,51.467884 C9.68793277,50.8517723 9.85068908,50.3020408 10.1768067,49.8186896 C10.5029244,49.3359828 10.9712269,48.9583244 11.5817143,48.6863588 C12.1928067,48.4150376 12.8777143,48.2790548 13.6382521,48.2790548 C14.4024202,48.2790548 15.0836975,48.426638 15.6826891,48.7218045 C16.2810756,49.016971 16.7457479,49.4332975 17.0761008,49.9714286 C17.4076639,50.5095596 17.5734454,51.1205156 17.5734454,51.8049409 L15.3662521,51.8049409 C15.3662521,51.2822771 15.2119664,50.8762621 14.903395,50.5862513 C14.5942185,50.2962406 14.1604034,50.1512352 13.6007395,50.1512352 C13.0616471,50.1512352 12.6423529,50.2730397 12.3434622,50.5160043 C12.0439664,50.7589689 11.894521,51.0786251 11.894521,51.4756176 C11.894521,51.8461869 12.0699832,52.1574651 12.4203025,52.4075188 C12.7712269,52.6588614 13.2873277,52.8934479 13.9692101,53.1132116 C15.2240672,53.5153598 16.1388908,54.0141783 16.7124706,54.609667 C17.2860504,55.2051557 17.5734454,55.9469388 17.5734454,56.8350161 C17.5734454,57.8223416 17.222521,58.596348 16.5212773,59.1576799 C15.8200336,59.7190118 14.8761681,60 13.6896807,60 C12.8650084,60 12.1147563,59.8395274 11.4383193,59.5179377 C10.7618824,59.1969925 10.2457815,58.7568206 9.89001681,58.1980666 C9.5342521,57.6393126 9.35697479,56.9916219 9.35697479,56.2549946 L11.5708235,56.2549946 C11.5708235,57.5136412 12.2775126,58.1432868 13.6896807,58.1432868 C14.2136471,58.1432868 14.6238655,58.0298604 14.917916,57.8023631 C15.2119664,57.5748657 15.3589916,57.2577873 15.3589916,56.8504834" id="Fill-5" fill="#FFF"/><path id="Fill-6" fill="#FFF" d="M28.0763697 50.33942L24.7958319 50.33942 24.7958319 59.8433942 22.5898487 59.8433942 22.5898487 50.33942 19.3528739 50.33942 19.3528739 48.4356606 28.0763697 48.4356606 28.0763697 50.33942"/><path d="M31.5729076,55.5892589 L34.2502185,55.5892589 L32.904,51.3190118 L31.5729076,55.5892589 Z M34.8455798,57.4930183 L30.9769412,57.4930183 L30.2412101,59.8433942 L27.8948571,59.8433942 L31.881479,48.4356606 L33.926521,48.4356606 L37.9355294,59.8433942 L35.5891765,59.8433942 L34.8455798,57.4930183 Z" id="Fill-7" fill="#FFF"/><path id="Fill-8" fill="#FFF" d="M46.4944538 50.33942L43.214521 50.33942 43.214521 59.8433942 41.0073277 59.8433942 41.0073277 50.33942 37.770958 50.33942 37.770958 48.4356606 46.4944538 48.4356606 46.4944538 50.33942"/><path id="Fill-9" fill="#FFF" d="M55.7630924 54.8996778L51.5259832 54.8996778 51.5259832 57.955102 56.4988235 57.955102 56.4988235 59.8433942 49.319395 59.8433942 49.319395 48.4356606 56.4836975 48.4356606 56.4836975 50.33942 51.5259832 50.33942 51.5259832 53.0584318 55.7630924 53.0584318 55.7630924 54.8996778"/><path d="M67.8457815,58.4017186 C67.4482689,58.9082707 66.8867899,59.3013963 66.1613445,59.5804511 C65.4352941,59.8601504 64.6311933,60 63.749042,60 C62.8221176,60 62.0089412,59.7847476 61.3107227,59.3535983 C60.6112941,58.922449 60.0722017,58.2973147 59.6922353,57.477551 C59.3122689,56.6571429 59.1174454,55.6936627 59.1071597,54.5858217 L59.1071597,53.8105263 C59.1071597,52.6723953 59.2874622,51.6857143 59.6480672,50.8524168 C60.0080672,50.0197637 60.5284034,49.383029 61.2078655,48.9409237 C61.8867227,48.5001074 62.6823529,48.2790548 63.5941513,48.2790548 C64.8641345,48.2790548 65.8570084,48.6019334 66.5733782,49.2464017 C67.2891429,49.892159 67.7132773,50.8305048 67.8457815,52.0633727 L65.6978824,52.0633727 C65.6004706,51.4105263 65.3826555,50.9323308 65.0468571,50.6294307 C64.7110588,50.3271751 64.2488067,50.175725 63.6601008,50.175725 C62.9098487,50.175725 62.3392941,50.4754028 61.9466218,51.0760473 C61.5545546,51.6773362 61.3554958,52.5699248 61.3506555,53.7557465 L61.3506555,54.4839957 C61.3506555,55.6801289 61.5648403,56.5843179 61.9907899,57.1952739 C62.4173445,57.8062299 63.0423529,58.1117078 63.8664202,58.1117078 C64.6947227,58.1117078 65.2858487,57.9235231 65.6391933,57.5477981 L65.6391933,55.5808808 L63.6310588,55.5808808 L63.6310588,53.8498389 L67.8457815,53.8498389 L67.8457815,58.4017186" id="Fill-10" fill="#FFF"/><path d="M79.5303529,48.4356606 L79.5303529,55.9495166 C79.5303529,57.1978518 79.1643025,58.1851772 78.4309916,58.9108485 C77.6976807,59.6371643 76.6957311,60 75.4263529,60 C74.1757311,60 73.1828571,59.6474758 72.4471261,58.9424275 C71.712,58.2367347 71.3362689,57.2680988 71.3223529,56.0352309 L71.3223529,48.4356606 L73.5283361,48.4356606 L73.5283361,55.9649839 C73.5283361,56.7119227 73.6959328,57.2564984 74.0323361,57.5987111 C74.3687395,57.9402793 74.8328067,58.1117078 75.4263529,58.1117078 C76.6672941,58.1117078 77.2971429,57.416971 77.3171092,56.0281418 L77.3171092,48.4356606 L79.5303529,48.4356606" id="Fill-11" fill="#FFF"/><path d="M85.4077311,53.7634801 L87.1877647,53.7634801 C87.7419832,53.7634801 88.170958,53.613319 88.4746891,53.3129968 C88.7790252,53.0126745 88.9308908,52.5989259 88.9308908,52.0711063 C88.9308908,51.5336198 88.7874958,51.1102041 88.5007059,50.8015038 C88.213916,50.4940924 87.7740504,50.33942 87.1805042,50.33942 L85.4077311,50.33942 L85.4077311,53.7634801 Z M87.1659832,55.6672395 L85.4077311,55.6672395 L85.4077311,59.8433942 L83.2011429,59.8433942 L83.2011429,48.4356606 L87.1805042,48.4356606 C88.445042,48.4356606 89.4215798,48.7359828 90.1076975,49.3372718 C90.7944202,49.9372718 91.138084,50.786681 91.138084,51.8829216 C91.138084,52.6614393 90.979563,53.3104189 90.6631261,53.8298604 C90.3472941,54.3499463 89.8674958,54.763695 89.2249412,55.0717508 L91.5422521,59.7338346 L91.5422521,59.8433942 L89.1735126,59.8433942 L87.1659832,55.6672395 Z" id="Fill-12" fill="#FFF"/><path d="M102.38279,48.4356606 L102.38279,55.9495166 C102.38279,57.1978518 102.016739,58.1851772 101.283429,58.9108485 C100.550118,59.6371643 99.5487731,60 98.2787899,60 C97.0287731,60 96.0352941,59.6474758 95.299563,58.9424275 C94.564437,58.2367347 94.1893109,57.2680988 94.1747899,56.0352309 L94.1747899,48.4356606 L96.3813782,48.4356606 L96.3813782,55.9649839 C96.3813782,56.7119227 96.5489748,57.2564984 96.8853782,57.5987111 C97.2205714,57.9402793 97.6852437,58.1117078 98.2787899,58.1117078 C99.5191261,58.1117078 100.14958,57.416971 100.168941,56.0281418 L100.168941,48.4356606 L102.38279,48.4356606" id="Fill-13" fill="#FFF"/></g></g></g></g></g></svg>