<svg width="101" height="59" viewBox="0 0 101 59" xmlns="http://www.w3.org/2000/svg"><title>Group 9</title><g id="Page-1" fill="none" fill-rule="evenodd"><g id="info-presskit" transform="translate(-1054 -1008)"><g id="Group-15" transform="translate(1014 948)"><g id="Group-12"><g id="Group-11" transform="translate(40 60)"><g id="Group-9"><path d="M56.1985824,27.3099544 C54.8900629,27.2885016 52.9444298,27.2783712 50.9993984,27.2783712 C49.0549685,27.2783712 47.1099371,27.2885016 45.8014176,27.3099544 L45.8014176,20.7841452 L51,16.2480791 L56.1985824,20.7841452 L56.1985824,27.3099544 Z M58.3999032,18.6436369 L51,12.1857614 L43.6006984,18.6430409 C43.0676648,19.0720961 42.7512136,19.7353438 42.7512136,20.4313665 L42.7512136,28.1209878 C42.7512136,28.7401381 43.0014868,29.3396235 43.4382615,29.766295 C43.8696217,30.1887951 44.4628172,30.4176245 45.0331512,30.3949799 C47.3205034,30.3312176 54.6806998,30.3318135 56.968052,30.3949799 C56.9879054,30.3955758 57.0083604,30.3961717 57.0300187,30.3961717 C57.6039624,30.3961717 58.1460203,30.1733014 58.5617385,29.766295 C58.9985132,29.3396235 59.2487864,28.7395422 59.2487864,28.1209878 L59.2487864,20.4313665 C59.2487864,19.7359397 58.9335385,19.072692 58.3999032,18.6436369 Z M60.7738884,28.1209878 C60.7738884,30.2209742 59.0935689,31.9300438 57.0438559,31.9300438 L56.9175161,31.928852 C55.8580665,31.8990565 53.5947791,31.8811792 51.0006016,31.8811792 C48.3937902,31.8811792 46.1232833,31.8990565 45.1023373,31.9282561 L44.9729894,31.9300438 C42.9070327,31.9300438 41.2267132,30.2209742 41.2267132,28.1209878 L41.2267132,20.4313665 C41.2267132,19.2991377 41.7423,18.1955126 42.6357029,17.4542007 L51.0006016,10.1549005 L59.3937764,17.478633 C60.2577,18.1955126 60.7738884,19.2991377 60.7738884,20.4313665 L60.7738884,28.1209878 Z M61.3640758,15.1361112 L51.0006016,6.09258273 L40.6654035,15.1116789 C39.0831478,16.4244684 38.1765092,18.3635592 38.1765092,20.4313665 L38.1765092,28.1209878 C38.1765092,31.9127624 41.2249084,34.9977879 44.9886315,34.9977879 L45.1606943,34.9960002 C46.1822419,34.9673965 48.4196598,34.9495192 51.0006016,34.9495192 C53.5785354,34.9495192 55.8189613,34.9673965 56.8459235,34.9960002 L57.0282138,34.9977879 C60.7750916,34.9977879 63.8240924,31.9127624 63.8240924,28.1209878 L63.8240924,20.4313665 C63.8240924,18.3635592 62.9174538,16.4244684 61.3640758,15.1361112 Z M65.349796,28.1209878 C65.349796,32.7583585 61.6161538,36.5322559 57.0450591,36.5322559 L56.7911763,36.5292763 C55.7798562,36.5012686 53.5646982,36.4833913 51.0006016,36.4833913 C48.4226679,36.4833913 46.2014937,36.5012686 45.2262707,36.5286804 L45.0199156,36.5322559 C40.4055045,36.5322559 36.6508056,32.7583585 36.6508056,28.1209878 L36.6508056,20.4313665 C36.6508056,17.9243736 37.745149,15.56755 39.6739368,13.9454833 L51.0006016,4.06231773 L62.3477215,13.9639565 C64.2554526,15.56755 65.349796,17.9243736 65.349796,20.4313665 L65.349796,28.1209878 Z M64.3258419,11.6279897 L51.0006016,0 L37.696418,11.6095165 C35.0932162,13.7971017 33.6,17.0132274 33.6,20.4313665 L33.6,28.1209878 C33.6,34.4507426 38.7233801,39.6 45.0403707,39.6 L45.2894406,39.5964245 C46.2616555,39.5690127 48.4497407,39.5517313 51.0006016,39.5517313 C53.5484545,39.5517313 55.7401494,39.5690127 56.7177789,39.5964245 L57.0282138,39.6 C63.2982781,39.6 68.4,34.4507426 68.4,28.1209878 L68.4,20.4313665 C68.4,17.0132274 66.9073854,13.7976976 64.3258419,11.6279897 Z" id="Fill-1" fill="#00CDEC"/><g id="Group-8" transform="translate(0 46.8)" fill="#0E151D"><path id="Fill-3" d="M6.31423059 7.00168421L2.16245647 7.00168421 2.16245647 9.996 7.03524706 9.996 7.03524706 11.8465263 0 11.8465263 0 0.666947368 7.02042353 0.666947368 7.02042353 2.53263158 2.16245647 2.53263158 2.16245647 5.19726316 6.31423059 5.19726316 6.31423059 7.00168421"/><path d="M15.0518118,8.91347368 C15.0518118,8.47831579 14.9077271,8.14421053 14.6195576,7.91115789 C14.3313882,7.67873684 13.8119718,7.43242105 13.0624941,7.17410526 C12.3124235,6.91578947 11.7188894,6.66063158 11.2818918,6.40989474 C10.09008,5.72463158 9.49417412,4.80063158 9.49417412,3.63852632 C9.49417412,3.03473684 9.65367529,2.496 9.97327059,2.02231579 C10.2928659,1.54926316 10.7518024,1.17915789 11.35008,0.912631579 C11.9489506,0.646736842 12.62016,0.513473684 13.3654871,0.513473684 C14.1143718,0.513473684 14.7820235,0.658105263 15.3690353,0.947368421 C15.9554541,1.23663158 16.4108329,1.64463158 16.7345788,2.172 C17.0595106,2.69936842 17.2219765,3.29810526 17.2219765,3.96884211 L15.0589271,3.96884211 C15.0589271,3.45663158 14.9077271,3.05873684 14.6053271,2.77452632 C14.3023341,2.49031579 13.8771953,2.34821053 13.3287247,2.34821053 C12.8004141,2.34821053 12.3895059,2.46757895 12.0965929,2.70568421 C11.8030871,2.94378947 11.6566306,3.25705263 11.6566306,3.64610526 C11.6566306,4.00926316 11.8285835,4.31431579 12.1718965,4.55936842 C12.5158024,4.80568421 13.0215812,5.03557895 13.6898259,5.25094737 C14.9195859,5.64505263 15.8161129,6.13389474 16.3782212,6.71747368 C16.9403294,7.30105263 17.2219765,8.028 17.2219765,8.89831579 C17.2219765,9.86589474 16.8780706,10.6244211 16.1908518,11.1745263 C15.5036329,11.7246316 14.5786447,12 13.4158871,12 C12.6077082,12 11.8724612,11.8427368 11.2095529,11.5275789 C10.5466447,11.2130526 10.0408659,10.7816842 9.69221647,10.2341053 C9.34356706,9.68652632 9.16983529,9.05178947 9.16983529,8.32989474 L11.3394071,8.32989474 C11.3394071,9.56336842 12.0319624,10.1804211 13.4158871,10.1804211 C13.9293741,10.1804211 14.3313882,10.0692632 14.6195576,9.84631579 C14.9077271,9.62336842 15.0518118,9.31263158 15.0518118,8.91347368" id="Fill-5"/><path id="Fill-6" d="M27.5148424 2.53263158L24.2999153 2.53263158 24.2999153 11.8465263 22.1380518 11.8465263 22.1380518 2.53263158 18.9658165 2.53263158 18.9658165 0.666947368 27.5148424 0.666947368 27.5148424 2.53263158"/><path d="M30.9414494,7.67747368 L33.5652141,7.67747368 L32.24592,3.49263158 L30.9414494,7.67747368 Z M34.1486682,9.54315789 L30.3574024,9.54315789 L29.6363859,11.8465263 L27.33696,11.8465263 L31.2438494,0.666947368 L33.2479906,0.666947368 L37.1768188,11.8465263 L34.8773929,11.8465263 L34.1486682,9.54315789 Z" id="Fill-7"/><path id="Fill-8" d="M45.5645647 2.53263158L42.3502306 2.53263158 42.3502306 11.8465263 40.1871812 11.8465263 40.1871812 2.53263158 37.0155388 2.53263158 37.0155388 0.666947368 45.5645647 0.666947368 45.5645647 2.53263158"/><path id="Fill-9" d="M54.6478306 7.00168421L50.4954635 7.00168421 50.4954635 9.996 55.3688471 9.996 55.3688471 11.8465263 48.3330071 11.8465263 48.3330071 0.666947368 55.3540235 0.666947368 55.3540235 2.53263158 50.4954635 2.53263158 50.4954635 5.19726316 54.6478306 5.19726316 54.6478306 7.00168421"/><path d="M66.4888659,10.4336842 C66.0993035,10.9301053 65.5490541,11.3153684 64.8381176,11.5888421 C64.1265882,11.8629474 63.3385694,12 62.4740612,12 C61.5656753,12 60.7687624,11.7890526 60.0845082,11.3665263 C59.3990682,10.944 58.8707576,10.3313684 58.4983906,9.528 C58.1260235,8.724 57.9350965,7.77978947 57.9250165,6.69410526 L57.9250165,5.93431579 C57.9250165,4.81894737 58.1017129,3.852 58.4551059,3.03536842 C58.8079059,2.21936842 59.3178353,1.59536842 59.9837082,1.16210526 C60.6489882,0.730105263 61.4287059,0.513473684 62.3222682,0.513473684 C63.5668518,0.513473684 64.5398682,0.829894737 65.2419106,1.46147368 C65.94336,2.09431579 66.3590118,3.01389474 66.4888659,4.22210526 L64.3839247,4.22210526 C64.2884612,3.58231579 64.0750024,3.11368421 63.74592,2.81684211 C63.4168376,2.52063158 62.9638306,2.37221053 62.3868988,2.37221053 C61.6516518,2.37221053 61.0925082,2.66589474 60.7076894,3.25452632 C60.3234635,3.84378947 60.1283859,4.71852632 60.1236424,5.88063158 L60.1236424,6.59431579 C60.1236424,7.76652632 60.3335435,8.65263158 60.7509741,9.25136842 C61.1689976,9.85010526 61.7815059,10.1494737 62.5890918,10.1494737 C63.4008282,10.1494737 63.9801318,9.96505263 64.3264094,9.59684211 L64.3264094,7.66926316 L62.3584376,7.66926316 L62.3584376,5.97284211 L66.4888659,5.97284211 L66.4888659,10.4336842" id="Fill-10"/><path d="M77.9397459,0.666947368 L77.9397459,8.03052632 C77.9397459,9.25389474 77.5810165,10.2214737 76.8623718,10.9326316 C76.1437271,11.6444211 75.1618165,12 73.9178259,12 C72.6922165,12 71.7192,11.6545263 70.9981835,10.9635789 C70.27776,10.272 69.9095435,9.32273684 69.8959059,8.11452632 L69.8959059,0.666947368 L72.0577694,0.666947368 L72.0577694,8.04568421 C72.0577694,8.77768421 72.2220141,9.31136842 72.5516894,9.64673684 C72.8813647,9.98147368 73.3361506,10.1494737 73.9178259,10.1494737 C75.1339482,10.1494737 75.7512,9.46863158 75.7707671,8.10757895 L75.7707671,0.666947368 L77.9397459,0.666947368" id="Fill-11"/><path d="M83.6995765,5.88821053 L85.4440094,5.88821053 C85.9871435,5.88821053 86.4075388,5.74105263 86.7051953,5.44673684 C87.0034447,5.15242105 87.1522729,4.74694737 87.1522729,4.22968421 C87.1522729,3.70294737 87.0117459,3.288 86.7306918,2.98547368 C86.4496376,2.68421053 86.0185694,2.53263158 85.4368941,2.53263158 L83.6995765,2.53263158 L83.6995765,5.88821053 Z M85.4226635,7.75389474 L83.6995765,7.75389474 L83.6995765,11.8465263 L81.53712,11.8465263 L81.53712,0.666947368 L85.4368941,0.666947368 C86.6761412,0.666947368 87.6331482,0.961263158 88.3055435,1.55052632 C88.9785318,2.13852632 89.3153224,2.97094737 89.3153224,4.04526316 C89.3153224,4.80821053 89.1599718,5.44421053 88.8498635,5.95326316 C88.5403482,6.46294737 88.0701459,6.86842105 87.4404424,7.17031579 L89.7114071,11.7391579 L89.7114071,11.8465263 L87.3900424,11.8465263 L85.4226635,7.75389474 Z" id="Fill-12"/><path d="M100.335134,0.666947368 L100.335134,8.03052632 C100.335134,9.25389474 99.9764047,10.2214737 99.25776,10.9326316 C98.5391153,11.6444211 97.5577976,12 96.3132141,12 C95.0881976,12 94.1145882,11.6545263 93.3935718,10.9635789 C92.6731482,10.272 92.3055247,9.32273684 92.2912941,8.11452632 L92.2912941,0.666947368 L94.4537506,0.666947368 L94.4537506,8.04568421 C94.4537506,8.77768421 94.6179953,9.31136842 94.9476706,9.64673684 C95.27616,9.98147368 95.7315388,10.1494737 96.3132141,10.1494737 C97.5287435,10.1494737 98.1465882,9.46863158 98.1655624,8.10757895 L98.1655624,0.666947368 L100.335134,0.666947368" id="Fill-13"/></g></g></g></g></g></g></g></svg>