<svg width="127" height="43" viewBox="0 0 127 43" xmlns="http://www.w3.org/2000/svg"><title>identity/eg-logo-negative-color</title><g id="Page-1" fill="none" fill-rule="evenodd"><g id="info-presskit" transform="translate(-429 -1016)" fill-rule="nonzero"><g id="Group-24" transform="translate(402 947)"><g id="identity/eg-logo-negative-color" transform="translate(27 69)"><path d="M32.6676724,12.6252593 L18.5005532,0 L4.35491985,12.604671 C1.58093133,14.9939636 -0.0120482253,18.4976058 6.86252751e-05,22.1828483 L6.86252751e-05,30.532585 C6.86252751e-05,37.4045326 5.44617704,43 12.1633456,43 L12.4279614,43 C13.4615459,42.9702612 15.7888074,42.9519604 18.5005532,42.9519604 C21.212299,42.9519604 23.5395605,42.9702612 24.5787992,43 L24.9090034,43 C31.5809386,43 36.9999069,37.407964 36.9999069,30.532585 L36.9999069,22.1828483 C37.0139875,18.5079836 35.4296875,15.0127692 32.6676724,12.6252593 Z M33.7577988,30.5314412 C33.7577988,35.5641592 29.787432,39.6635367 24.9270968,39.6635367 L24.6568269,39.6635367 C23.5825323,39.6326541 21.2269999,39.6132096 18.5005532,39.6132096 C15.7741065,39.6132096 13.3982191,39.6326541 12.361242,39.6635367 L12.1418598,39.6635367 C7.237422,39.6635367 3.24330761,35.5721658 3.24330761,30.5314412 L3.24330761,22.1817045 C3.23683773,19.4707035 4.41275087,16.8948015 6.45714484,15.1416183 L18.5005532,4.41049104 L30.5654474,15.1622067 C32.5990163,16.9138216 33.7667634,19.4823577 33.7577988,22.1839921 L33.7577988,30.5314412 Z M29.5149004,16.4341118 L18.5005532,6.61459275 L7.51221526,16.4078044 C5.82522846,17.8395295 4.85445993,19.9554477 4.86266543,22.1828483 L4.86266543,30.532585 C4.86266543,34.6502633 8.10477357,37.9993084 12.1068038,37.9993084 L12.2888685,37.9993084 C13.3756023,37.9684258 15.7548823,37.9489812 18.4982915,37.9489812 C21.2417008,37.9489812 23.6209807,37.9684258 24.7178921,37.9993084 L24.9112651,37.9993084 C28.895202,37.9993084 32.1373101,34.6502633 32.1373101,30.532585 L32.1373101,22.1828483 C32.1470397,19.968562 31.1868128,17.8635929 29.5149004,16.4341118 Z M28.8872861,30.5314412 C28.8872861,32.8121775 27.1005645,34.6674203 24.9214426,34.6674203 L24.7868731,34.6674203 C23.6616908,34.6353939 21.25414,34.6159494 18.4960299,34.6159494 C15.7379197,34.6159494 13.3100138,34.6365377 12.2255417,34.6674203 L12.0875796,34.6674203 C9.89036435,34.6674203 8.10364274,32.8121775 8.10364274,30.5314412 L8.10364274,22.1817045 C8.11238315,20.9326865 8.66413447,19.7508535 9.61217858,18.9504708 L18.5005532,11.0262276 L27.4251146,18.9767782 C28.3538122,19.7761193 28.8908199,20.9460099 28.895202,22.1794169 L28.8872861,30.5314412 Z M26.3632591,20.2372453 L18.4960299,13.2257541 L10.6299314,20.2452519 C10.0553726,20.7234107 9.72330605,21.4371411 9.72526223,22.1897111 L9.72526223,30.5394478 C9.72383865,31.2096188 9.98677628,31.8526787 10.4557826,32.3260627 C10.9046377,32.7797996 11.5176287,33.0278067 12.1520373,33.0123424 C14.5844665,32.9425706 22.4098549,32.9437144 24.8422841,33.0123424 L24.9078726,33.0123424 C25.5195955,33.011508 26.1058687,32.7645987 26.537408,32.3260627 C27.0052585,31.8519906 27.2676467,31.2092797 27.2667975,30.5394478 L27.2667975,22.1897111 C27.2677922,21.4373575 26.9359094,20.7240221 26.3621283,20.2452519 L26.3632591,20.2372453 Z M24.0212968,29.6541469 C22.630368,29.6312709 20.5620681,29.619833 18.4937682,29.619833 C16.4254683,29.619833 14.3582992,29.6312709 12.9673704,29.6541469 L12.9673704,22.5660212 L18.494899,17.6408203 L24.0212968,22.5660212 L24.0212968,29.6541469 Z" id="Shape" fill="#00CDEC"/><path id="Shape" fill="#FFF" d="M51.3855711 26.1002015L47.8432866 26.1002015 47.8432866 28.5106783 52 28.5106783 52 30 46 30 46 21 51.987976 21 51.987976 22.5026192 47.8432866 22.5026192 47.8432866 24.6471457 51.3855711 24.6471457z"/><path d="M59.1110197,27.5819418 C59.1279308,27.2765037 58.9874384,26.9826199 58.7353185,26.7960453 C58.4848511,26.613297 58.0340913,26.4211366 57.3830391,26.2195644 C56.8507338,26.0634317 56.3335708,25.8630645 55.837402,25.6207301 C54.8037139,25.0834656 54.2868698,24.359531 54.2868698,23.4489264 C54.2797894,22.9948423 54.425757,22.5507487 54.7029558,22.1830214 C55.0078933,21.7907769 55.421947,21.4893819 55.8973673,21.313594 C56.4527163,21.0980817 57.047337,20.9916738 57.6461523,21.0006472 C58.2451159,20.9902035 58.8391646,21.1062695 59.3863707,21.3406533 C59.8678722,21.5457485 60.2787399,21.8783077 60.570992,22.299494 C60.8558344,22.7187863 61.0033307,23.2105662 60.9944207,23.7112841 L59.1171386,23.7112841 C59.1401691,23.3562361 58.994856,23.0102355 58.7218569,22.7700907 C58.4599675,22.5477338 58.0903852,22.4359671 57.6204528,22.4359671 C57.1505204,22.4359671 56.80419,22.5289099 56.5496433,22.7159721 C56.3036303,22.8857553 56.1607274,23.1613974 56.1678232,23.4524559 C56.1678232,23.7371669 56.3171247,23.9756026 56.6157275,24.1677629 C57.0249569,24.4087704 57.4679746,24.5922038 57.9312935,24.7124785 C59.0000634,25.0207194 59.777981,25.4034713 60.2650464,25.8607344 C60.74884,26.306011 61.0153532,26.9264767 60.9993158,27.5701769 C60.9993158,28.3278375 60.7011208,28.922358 60.1047309,29.3537383 C59.508341,29.7851186 58.7022764,30.0004166 57.6865371,29.9996323 C57.0281733,30.0077355 56.3754752,29.8818393 55.7713178,29.6302139 C55.2414354,29.4187251 54.7848305,29.0670673 54.454528,28.616078 C54.1482859,28.1750493 53.9898439,27.6544538 54.0005047,27.1242865 L55.8875771,27.1242865 C55.8875771,28.0913627 56.4884542,28.5745086 57.6902084,28.5737243 C58.1356652,28.5737243 58.4840352,28.4866639 58.7353185,28.3125432 C58.9814828,28.1461467 59.1229684,27.8710091 59.1110197,27.5819418" id="Shape" fill="#FFF"/><path id="Shape" fill="#FFF" d="M69 22.5026192L66.3680739 22.5026192 66.3680739 30 64.5972955 30 64.5972955 22.5026192 62 22.5026192 62 21 69 21z"/><path d="M73.5381089,28.1456011 L70.4561605,28.1456011 L69.869341,30 L68,30 L71.1759312,21 L72.8057307,21 L76,30 L74.130659,30 L73.5381089,28.1456011 Z M70.930659,26.6405641 L73.0681948,26.6405641 L71.9954155,23.2714574 L70.930659,26.6405641 Z" id="Shape" fill="#FFF"/><path id="Shape" fill="#FFF" d="M83 22.5026192L80.3669195 22.5026192 80.3669195 30 78.5961412 30 78.5961412 22.5026192 76 22.5026192 76 21 83 21z"/><path id="Shape" fill="#FFF" d="M90.3844921 26.1002015L86.8441194 26.1002015 86.8441194 28.5106783 91 28.5106783 91 30 85 30 85 21 90.9867762 21 90.9867762 22.5026192 86.8441194 22.5026192 86.8441194 24.6471457 90.3844921 24.6471457z"/><path d="M100,28.7720614 C99.6377036,29.1913614 99.1719321,29.5037542 98.6512213,29.6766866 C98.0299667,29.8986577 97.3754379,30.0077483 96.7173191,29.9990108 C96.0347968,30.0147104 95.3606291,29.8432873 94.7649878,29.5025845 C94.2007003,29.167152 93.7489807,28.6652067 93.4691927,28.0627128 C93.1506212,27.3685322 92.9907137,26.6094771 93.0015546,25.8429108 L93.0015546,25.2476697 C92.983021,24.4678732 93.1303888,23.6932555 93.4334863,22.9772839 C93.6944817,22.3700584 94.1298836,21.8581007 94.6820569,21.5091795 C95.2601509,21.1611127 95.9220299,20.9850877 96.5929228,21.0009896 C97.609594,21.0009896 98.4047323,21.2488106 98.9783376,21.7444527 C99.5519428,22.2400948 99.892497,22.9600306 100,23.9042601 L98.2803359,23.9042601 C98.2020123,23.401952 98.0280878,23.0361022 97.7585624,22.8031818 C97.4890371,22.5702614 97.1204553,22.4502721 96.64821,22.4502721 C96.0484968,22.4502721 95.5912251,22.6808398 95.2763949,23.1419751 C94.9615647,23.6031105 94.8026138,24.2889317 94.7995423,25.1994387 L94.7995423,25.7582124 C94.7995423,26.6773462 94.9703953,27.3714019 95.3121013,27.8403797 C95.6538073,28.3093575 96.1529283,28.5446307 96.8094645,28.5461991 C97.4729116,28.5461991 97.9459248,28.4018983 98.2285041,28.1132966 L98.2285041,26.6099012 L96.6159591,26.6099012 L96.6159591,25.2770789 L99.9907855,25.2770789 L100,28.7720614 Z" id="Shape" fill="#FFF"/><path d="M110,21.0083444 L110,26.849404 C110,27.8213245 109.687226,28.5890066 109.061679,29.1524503 C108.436131,29.715894 107.582443,29.9984106 106.500613,30 C105.433503,30 104.586765,29.7258278 103.9604,29.1774834 C103.334034,28.6291391 103.013901,27.8741722 103,26.9125828 L103,21 L104.881549,21 L104.881549,26.8577483 C104.881549,27.4386755 105.025057,27.8622517 105.312073,28.1284768 C105.599089,28.394702 105.995269,28.5278146 106.500613,28.5278146 C107.557911,28.5278146 108.095146,27.9874172 108.112318,26.9066225 L108.112318,21.0083444 L110,21.0083444 Z" id="Shape" fill="#FFF"/><path d="M115.327354,26.704634 L113.852018,26.704634 L113.852018,30 L112,30 L112,21 L115.340635,21 C116.402265,21 117.221226,21.2369375 117.797516,21.7108126 C118.373807,22.1846877 118.66155,22.8543989 118.660745,23.7199463 C118.660745,24.3340497 118.527941,24.8462055 118.262332,25.2564137 C117.963948,25.6937808 117.544264,26.0341612 117.055019,26.2355944 L119,29.9129617 L119,30 L117.011556,30 L115.327354,26.704634 Z M113.852018,25.2032236 L115.351501,25.2032236 C115.815914,25.2032236 116.175693,25.0847549 116.430838,24.8478173 C116.694051,24.5923473 116.833671,24.2351317 116.813556,23.8686367 C116.813556,23.4443251 116.692825,23.1094694 116.451363,22.8664876 C116.2099,22.6235057 115.84167,22.5038281 115.344257,22.5038281 L113.85564,22.5038281 L113.852018,25.2032236 Z" id="Shape" fill="#FFF"/><path d="M127,21.0083444 L127,26.849404 C127,27.8213245 126.687226,28.5890066 126.061679,29.1524503 C125.436131,29.715894 124.582443,29.9984106 123.500613,30 C122.433503,30 121.586765,29.7258278 120.9604,29.1774834 C120.334034,28.6291391 120.013901,27.8741722 120,26.9125828 L120,21 L121.881549,21 L121.881549,26.8577483 C121.881549,27.4386755 122.025057,27.8622517 122.312073,28.1284768 C122.599089,28.394702 122.995269,28.5278146 123.500613,28.5278146 C124.557911,28.5278146 125.095146,27.9874172 125.112318,26.9066225 L125.112318,21.0083444 L127,21.0083444 Z" id="Shape" fill="#FFF"/></g></g></g></g></svg>