<svg width="134" height="50" viewBox="0 0 134 50" xmlns="http://www.w3.org/2000/svg"><title>Group 27</title><g id="Page-1" fill="none" fill-rule="evenodd"><g id="info-presskit" transform="translate(-1241 -1012)"><g id="Group-17" transform="translate(1218 947)"><g id="Group-27" transform="translate(23 65)"><g id="Group-16"><path d="M27.9229134,34.4819117 C26.3061811,34.4550678 23.9022441,34.4419314 21.4988714,34.4419314 C19.096063,34.4419314 16.6932546,34.4550678 15.0765223,34.4819117 L15.0765223,26.2425322 L21.5,20.5150612 L27.9229134,26.2425322 L27.9229134,34.4819117 Z M30.6434252,23.5398604 L21.5,15.3861531 L12.3571391,23.5392893 C11.6980315,24.0813086 11.3075328,24.9180403 11.3075328,25.7970369 L11.3075328,35.5054088 C11.3075328,36.2878814 11.6167717,37.0446523 12.1562467,37.583816 C12.6889501,38.1172681 13.4219816,38.4056978 14.1267979,38.3771404 C16.9528346,38.2960374 26.0477297,38.2971797 28.8737664,38.3771404 C28.8985958,38.3782827 28.9245538,38.3788538 28.9505118,38.3788538 C29.6598425,38.3788538 30.3296719,38.0978491 30.8437533,37.583816 C31.3832283,37.0446523 31.6924672,36.2873102 31.6924672,35.5054088 L31.6924672,25.7970369 C31.6924672,24.9191826 31.3025328,24.0813086 30.6434252,23.5398604 Z M33.5766798,35.5054088 C33.5766798,38.1578196 31.5006037,40.3150452 28.9680052,40.3150452 L28.8116929,40.3133317 C27.5030709,40.2762071 24.7052493,40.2539324 21.5005643,40.2539324 C18.2795144,40.2539324 15.4737927,40.2767783 14.2131365,40.3127606 L14.0523097,40.3150452 C11.4999606,40.3150452 9.42332021,38.1578196 9.42332021,35.5054088 L9.42332021,25.7970369 C9.42332021,24.3674537 10.0609843,22.9738528 11.1641995,22.0377415 L21.5005643,12.8222702 L31.8713517,22.0691546 C32.9390157,22.9738528 33.5766798,24.3674537 33.5766798,25.7970369 L33.5766798,35.5054088 Z M34.3057612,19.1117508 L21.5005643,7.69336212 L8.73035433,19.0803377 C6.77560367,20.7378088 5.65433071,23.1863199 5.65433071,25.7970369 L5.65433071,35.5054088 C5.65433071,40.2939127 9.42106299,44.1891413 14.0720604,44.1891413 L14.2842388,44.1862856 C15.5471522,44.1503033 18.3116798,44.1274574 21.5005643,44.1274574 C24.686063,44.1274574 27.4539764,44.1503033 28.7230971,44.1862856 L28.9476903,44.1891413 C33.578937,44.1891413 37.3462336,40.2939127 37.3462336,35.5054088 L37.3462336,25.7970369 C37.3462336,23.1863199 36.2249606,20.7378088 34.3057612,19.1117508 Z M39.2304462,35.5054088 C39.2304462,41.3613881 34.6178215,46.1259038 28.9691339,46.1259038 L28.6553806,46.122477 C27.4060105,46.0870658 24.6685696,46.064791 21.5005643,46.064791 C18.3150656,46.064791 15.5714173,46.0870658 14.3654987,46.1219058 L14.1109974,46.1259038 C8.40813648,46.1259038 3.76955381,41.3613881 3.76955381,35.5054088 L3.76955381,25.7970369 C3.76955381,22.6323064 5.12106299,19.6554836 7.50468504,17.6079184 L21.5005643,5.12890808 L35.5218373,17.6313355 C37.878937,19.6554836 39.2304462,22.6323064 39.2304462,25.7970369 L39.2304462,35.5054088 Z M37.9652756,14.6819277 L21.5005643,0 L5.06124672,14.6590818 C1.84471129,17.421153 0,21.4814434 0,25.7970369 L0,35.5054088 C0,43.4980524 6.32980315,50 14.1358268,50 L14.443937,49.9954308 C15.6447769,49.9600196 18.3483596,49.938316 21.5005643,49.938316 C24.6493832,49.938316 27.356916,49.9600196 28.5650919,49.9954308 L28.9476903,50 C36.6961549,50 43,43.4980524 43,35.5054088 L43,25.7970369 C43,21.4820146 41.1552887,17.4217242 37.9652756,14.6819277 Z" id="Fill-1" fill="#00CDEC"/><path d="M52,31.959893 L52,29.040107 L52.954144,29.040107 C53.3003002,29.040107 53.5628721,29.1046117 53.7418675,29.233623 C53.9208628,29.3626343 54.0103591,29.5528062 54.0103591,29.8041444 C54.0103591,29.9552147 53.9648713,30.0865636 53.8738944,30.1981952 C53.7829174,30.3098268 53.6582882,30.3897056 53.5000031,30.4378342 C53.6878742,30.4752676 53.8391304,30.5588229 53.9537762,30.6885027 C54.068422,30.8181825 54.125744,30.9679136 54.125744,31.1377005 C54.125744,31.3957232 54.0336589,31.5972586 53.849486,31.7423128 C53.6653131,31.887367 53.4090282,31.959893 53.0806235,31.959893 L52,31.959893 Z M52.2729296,30.5561497 L52.2729296,31.7513369 L53.0917182,31.7513369 C53.3254477,31.7513369 53.5107273,31.6975273 53.6475625,31.5899064 C53.7843978,31.4822856 53.8528144,31.3328887 53.8528144,31.1417112 C53.8528144,30.961229 53.7873564,30.8185166 53.6564383,30.7135695 C53.5255202,30.6086225 53.3446785,30.5561497 53.1139076,30.5561497 L52.2729296,30.5561497 Z M52.2729296,30.3495989 L53.0184932,30.3495989 C53.2463055,30.3455882 53.4227094,30.2971261 53.5477103,30.2042112 C53.6727111,30.1112963 53.7352106,29.9759367 53.7352106,29.7981283 C53.7352106,29.6109616 53.6704922,29.4729283 53.5410534,29.3840241 C53.4116147,29.2951199 53.2159801,29.2506684 52.954144,29.2506684 L52.2729296,29.2506684 L52.2729296,30.3495989 Z M56.0482014,30.7446524 L55.10959,30.7446524 L55.10959,31.959893 L54.8344415,31.959893 L54.8344415,29.040107 L55.8839999,29.040107 C56.2286768,29.040107 56.4979055,29.115641 56.6916938,29.2667112 C56.8854822,29.4177815 56.9823749,29.6290093 56.9823749,29.9004011 C56.9823749,30.0875678 56.9217245,30.2526731 56.8004218,30.3957219 C56.6791192,30.5387708 56.5163986,30.6377003 56.3122552,30.6925134 L57.1199491,31.9338235 L57.1199491,31.959893 L56.8292681,31.959893 L56.0482014,30.7446524 Z M55.10959,30.5340909 L55.9461302,30.5340909 C56.1754217,30.5340909 56.3595919,30.475268 56.4986461,30.3576203 C56.6377003,30.2399727 56.7072264,30.0875678 56.7072264,29.9004011 C56.7072264,29.6945177 56.6347418,29.5347599 56.4897703,29.421123 C56.3447989,29.3074861 56.1413981,29.2506684 55.879562,29.2506684 L55.10959,29.2506684 L55.10959,30.5340909 Z M58.0811057,31.959893 L57.8081762,31.959893 L57.8081762,29.040107 L58.0811057,29.040107 L58.0811057,31.959893 Z M58.987966,31.959893 L58.987966,29.040107 L59.8910744,29.040107 C60.1558691,29.040107 60.3932933,29.094585 60.6033539,29.2035428 C60.8134146,29.3125005 60.9772446,29.4685819 61.094849,29.6717914 C61.2124534,29.875001 61.2712547,30.1062821 61.2712547,30.3656417 L61.2712547,30.6343583 C61.2712547,30.8950548 61.2128232,31.1263359 61.0959585,31.3282086 C60.9790937,31.5300812 60.8145241,31.6858283 60.6022445,31.7954545 C60.3899648,31.9050808 60.1462538,31.959893 59.8711039,31.959893 L58.987966,31.959893 Z M59.2608956,29.2506684 L59.2608956,31.7513369 L59.8733228,31.7513369 C60.2135619,31.7513369 60.4864887,31.6493994 60.6921115,31.4455214 C60.8977342,31.2416434 61.0005441,30.9659108 61.0005441,30.6183155 L61.0005441,30.361631 C61.0005441,30.0260678 60.8992135,29.757354 60.6965494,29.5554813 C60.4938852,29.3536086 60.2268755,29.2520054 59.8955122,29.2506684 L59.2608956,29.2506684 Z M64.3480815,31.6129679 C64.2534063,31.7346263 64.1051086,31.8295451 63.9031841,31.8977273 C63.7012596,31.9659094 63.4752999,32 63.2252981,32 C62.9723378,32 62.7474875,31.9451877 62.5507405,31.8355615 C62.3539936,31.7259353 62.2016279,31.5708566 62.093639,31.3703209 C61.9856501,31.1697851 61.9309168,30.9398409 61.9294375,30.6804813 L61.9294375,30.3114973 C61.9294375,29.9064151 62.0426023,29.5865653 62.2689352,29.3519385 C62.4952682,29.1173117 62.7992598,29 63.1809193,29 C63.5137619,29 63.7815113,29.0765367 63.9841754,29.2296123 C64.1868396,29.3826879 64.3074007,29.5935815 64.3458625,29.8622995 L64.072933,29.8622995 C64.0329919,29.6483947 63.936469,29.4862973 63.7833614,29.3760027 C63.6302538,29.265708 63.4301814,29.2105615 63.1831383,29.2105615 C62.881361,29.2105615 62.6424576,29.3074857 62.4664208,29.5013369 C62.2903841,29.6951881 62.202367,29.9685811 62.202367,30.3215241 L62.202367,30.6664439 C62.202367,30.8883701 62.2441566,31.084558 62.3277371,31.2550134 C62.4113176,31.4254688 62.5311391,31.5574862 62.6872053,31.6510695 C62.8432715,31.7446529 63.022634,31.7914439 63.2252981,31.7914439 C63.4605069,31.7914439 63.6624283,31.7580217 63.8310686,31.6911765 C63.9405368,31.6470586 64.0218971,31.5955885 64.0751519,31.5367647 L64.0751519,30.782754 L63.2075466,30.782754 L63.2075466,30.5741979 L64.3480815,30.5741979 L64.3480815,31.6129679 Z M65.4788567,31.959893 L65.2059272,31.959893 L65.2059272,29.040107 L65.4788567,29.040107 L65.4788567,31.959893 Z M68.7905577,31.959893 L68.5176282,31.959893 L66.6603759,29.4612299 L66.6603759,31.959893 L66.3852274,31.959893 L66.3852274,29.040107 L66.6603759,29.040107 L68.5198471,31.5407754 L68.5198471,29.040107 L68.7905577,29.040107 L68.7905577,31.959893 Z M72,31.6129679 C71.9053248,31.7346263 71.7570271,31.8295451 71.5551026,31.8977273 C71.3531781,31.9659094 71.1272184,32 70.8772166,32 C70.6242563,32 70.399406,31.9451877 70.2026591,31.8355615 C70.0059121,31.7259353 69.8535465,31.5708566 69.7455575,31.3703209 C69.6375686,31.1697851 69.5828353,30.9398409 69.581356,30.6804813 L69.581356,30.3114973 C69.581356,29.9064151 69.6945208,29.5865653 69.9208537,29.3519385 C70.1471867,29.1173117 70.4511784,29 70.8328379,29 C71.1656804,29 71.4334298,29.0765367 71.6360939,29.2296123 C71.8387581,29.3826879 71.9593193,29.5935815 71.9977811,29.8622995 L71.7248515,29.8622995 C71.6849104,29.6483947 71.5883875,29.4862973 71.4352799,29.3760027 C71.2821723,29.265708 71.0821,29.2105615 70.8350568,29.2105615 C70.5332795,29.2105615 70.2943761,29.3074857 70.1183394,29.5013369 C69.9423026,29.6951881 69.8542856,29.9685811 69.8542856,30.3215241 L69.8542856,30.6664439 C69.8542856,30.8883701 69.8960752,31.084558 69.9796556,31.2550134 C70.0632361,31.4254688 70.1830576,31.5574862 70.3391238,31.6510695 C70.49519,31.7446529 70.6745525,31.7914439 70.8772166,31.7914439 C71.1124254,31.7914439 71.3143469,31.7580217 71.4829871,31.6911765 C71.5924553,31.6470586 71.6738156,31.5955885 71.7270704,31.5367647 L71.7270704,30.782754 L70.8594651,30.782754 L70.8594651,30.5741979 L72,30.5741979 L72,31.6129679 Z" id="BRIDGING" fill="#FFF"/><path d="M54.5039479,35.2506684 L53.3883497,35.2506684 L53.3883497,37.959893 L53.1133626,37.959893 L53.1133626,35.2506684 L52,35.2506684 L52,35.040107 L54.5039479,35.040107 L54.5039479,35.2506684 Z M57.4995067,37.959893 L57.2222839,37.959893 L57.2222839,36.5601604 L55.3622083,36.5601604 L55.3622083,37.959893 L55.0872212,37.959893 L55.0872212,35.040107 L55.3622083,35.040107 L55.3622083,36.3516043 L57.2222839,36.3516043 L57.2222839,35.040107 L57.4995067,35.040107 L57.4995067,37.959893 Z M60.182072,36.5601604 L58.6595823,36.5601604 L58.6595823,37.7513369 L60.4101101,37.7513369 L60.4101101,37.959893 L58.3845951,37.959893 L58.3845951,35.040107 L60.3989318,35.040107 L60.3989318,35.2506684 L58.6595823,35.2506684 L58.6595823,36.3516043 L60.182072,36.3516043 L60.182072,36.5601604 Z M64.3982794,37.6129679 C64.3028905,37.7346263 64.1534748,37.8295451 63.950028,37.8977273 C63.7465813,37.9659094 63.518918,38 63.2670315,38 C63.0121641,38 62.7856187,37.9451877 62.5873885,37.8355615 C62.3891583,37.7259353 62.235644,37.5708566 62.126841,37.3703209 C62.0180379,37.1697851 61.962892,36.9398409 61.9614016,36.6804813 L61.9614016,36.3114973 C61.9614016,35.9064151 62.0754195,35.5865653 62.3034587,35.3519385 C62.531498,35.1173117 62.8377814,35 63.2223182,35 C63.55767,35 63.8274379,35.0765367 64.0316299,35.2296123 C64.2358219,35.3826879 64.357292,35.5935815 64.3960438,35.8622995 L64.1210566,35.8622995 C64.0808144,35.6483947 63.9835638,35.4862973 63.829302,35.3760027 C63.6750401,35.265708 63.4734594,35.2105615 63.2245539,35.2105615 C62.9205015,35.2105615 62.679797,35.3074857 62.5024332,35.5013369 C62.3250693,35.6951881 62.2363887,35.9685811 62.2363887,36.3215241 L62.2363887,36.6664439 C62.2363887,36.8883701 62.2784933,37.084558 62.3627039,37.2550134 C62.4469145,37.4254688 62.5676394,37.5574862 62.7248821,37.6510695 C62.8821249,37.7446529 63.0628395,37.7914439 63.2670315,37.7914439 C63.5040135,37.7914439 63.7074572,37.7580217 63.8773688,37.6911765 C63.9876623,37.6470586 64.069636,37.5955885 64.1232923,37.5367647 L64.1232923,36.782754 L63.2491462,36.782754 L63.2491462,36.5741979 L64.3982794,36.5741979 L64.3982794,37.6129679 Z M66.9936537,37.1417112 L65.5158773,37.1417112 L65.1805271,37.959893 L64.892126,37.959893 L66.1239789,35.040107 L66.3855521,35.040107 L67.617405,37.959893 L67.3312395,37.959893 L66.9936537,37.1417112 Z M65.6008327,36.9311497 L66.9064627,36.9311497 L66.2536477,35.3409091 L65.6008327,36.9311497 Z M68.4741015,36.7707219 L68.4741015,37.959893 L68.1991143,37.959893 L68.1991143,35.040107 L69.3080056,35.040107 C69.6463383,35.040107 69.9134979,35.1176463 70.1094925,35.2727273 C70.305487,35.4278083 70.4034828,35.6410414 70.4034828,35.9124332 C70.4034828,36.1864987 70.3092131,36.3980608 70.1206708,36.5471257 C69.9321285,36.6961906 69.6590072,36.7707219 69.3012986,36.7707219 L68.4741015,36.7707219 Z M68.4741015,36.5621658 L69.3080056,36.5621658 C69.5747966,36.5621658 69.7782403,36.5053482 69.9183429,36.3917112 C70.0584454,36.2780743 70.1284956,36.1196534 70.1284956,35.9164439 C70.1284956,35.7145712 70.058818,35.5538108 69.9194607,35.4341578 C69.7801034,35.3145047 69.5822488,35.2533423 69.3258909,35.2506684 L68.4741015,35.2506684 L68.4741015,36.5621658 Z M72.9533985,37.2419786 C72.9533985,37.0802131 72.8900552,36.9522064 72.7633667,36.8579545 C72.6366782,36.7637027 72.4049163,36.6741314 72.068074,36.589238 C71.7312317,36.5043445 71.4853107,36.4117652 71.3303036,36.3114973 C71.1097167,36.1697854 70.9994248,35.9839584 70.9994248,35.7540107 C70.9994248,35.5307475 71.1018919,35.3492654 71.3068291,35.2095588 C71.5117664,35.0698522 71.7737095,35 72.0926664,35 C72.308782,35 72.5021653,35.0374328 72.6728221,35.1122995 C72.843479,35.1871661 72.9757547,35.2914432 73.0696532,35.4251337 C73.1635517,35.5588242 73.2105002,35.7078869 73.2105002,35.8723262 L72.9332774,35.8723262 C72.9332774,35.6731273 72.8572655,35.5130354 72.7052393,35.3920455 C72.5532132,35.2710555 72.3490242,35.2105615 72.0926664,35.2105615 C71.8437608,35.2105615 71.6455335,35.2603605 71.4979787,35.3599599 C71.3504239,35.4595593 71.2766476,35.5895714 71.2766476,35.75 C71.2766476,35.8983965 71.3429718,36.0193846 71.4756221,36.1129679 C71.6082723,36.2065513 71.8206587,36.2891039 72.1127874,36.3606283 C72.4049161,36.4321528 72.626245,36.5063499 72.7767807,36.5832219 C72.9273164,36.660094 73.0405891,36.7520048 73.1166022,36.8589572 C73.1926153,36.9659096 73.2306213,37.0922453 73.2306213,37.2379679 C73.2306213,37.4679156 73.1281542,37.6524057 72.9232169,37.7914439 C72.7182797,37.930482 72.4481392,38 72.1127874,38 C71.8832577,38 71.6727344,37.9632357 71.4812112,37.8897059 C71.2896881,37.8161761 71.1443711,37.713236 71.045256,37.5808824 C70.9461409,37.4485288 70.8965841,37.2967923 70.8965841,37.1256684 L71.1715712,37.1256684 C71.1715712,37.3315518 71.257271,37.4939834 71.428673,37.6129679 C71.6000751,37.7319525 71.8281109,37.7914439 72.1127874,37.7914439 C72.3661643,37.7914439 72.5696081,37.7413107 72.7231247,37.6410428 C72.8766413,37.5407749 72.9533985,37.4077548 72.9533985,37.2419786 Z M75.2203345,37.959893 L74.9453473,37.959893 L74.9453473,35.040107 L75.2203345,35.040107 L75.2203345,37.959893 Z M78.5487664,37.959893 L78.2737792,37.959893 L76.4025253,35.4612299 L76.4025253,37.959893 L76.1253025,37.959893 L76.1253025,35.040107 L76.4025253,35.040107 L78.2760149,37.5407754 L78.2760149,35.040107 L78.5487664,35.040107 L78.5487664,37.959893 Z M80.7113817,36.7707219 L80.7113817,37.959893 L80.4363946,37.959893 L80.4363946,35.040107 L81.5452858,35.040107 C81.8836186,35.040107 82.1507782,35.1176463 82.3467727,35.2727273 C82.5427672,35.4278083 82.640763,35.6410414 82.640763,35.9124332 C82.640763,36.1864987 82.5464933,36.3980608 82.357951,36.5471257 C82.1694088,36.6961906 81.8962874,36.7707219 81.5385788,36.7707219 L80.7113817,36.7707219 Z M80.7113817,36.5621658 L81.5452858,36.5621658 C81.8120768,36.5621658 82.0155206,36.5053482 82.1556231,36.3917112 C82.2957257,36.2780743 82.3657759,36.1196534 82.3657759,35.9164439 C82.3657759,35.7145712 82.2960983,35.5538108 82.1567409,35.4341578 C82.0173836,35.3145047 81.819529,35.2533423 81.5631711,35.2506684 L80.7113817,35.2506684 L80.7113817,36.5621658 Z M84.5296663,36.7446524 L83.5839788,36.7446524 L83.5839788,37.959893 L83.306756,37.959893 L83.306756,35.040107 L84.3642269,35.040107 C84.7115023,35.040107 84.9827606,35.115641 85.1780099,35.2667112 C85.3732592,35.4177815 85.4708824,35.6290093 85.4708824,35.9004011 C85.4708824,36.0875678 85.4097748,36.2526731 85.2875576,36.3957219 C85.1653405,36.5387708 85.0013932,36.6377003 84.7957107,36.6925134 L85.6094938,37.9338235 L85.6094938,37.959893 L85.3166213,37.959893 L84.5296663,36.7446524 Z M83.5839788,36.5340909 L84.4268256,36.5340909 C84.6578457,36.5340909 84.8434043,36.475268 84.9835068,36.3576203 C85.1236094,36.2399727 85.1936596,36.0875678 85.1936596,35.9004011 C85.1936596,35.6945177 85.1206285,35.5347599 84.9745642,35.421123 C84.8284998,35.3074861 84.6235656,35.2506684 84.3597555,35.2506684 L83.5839788,35.2506684 L83.5839788,36.5340909 Z M88.6527154,36.6584225 C88.6527154,36.9271404 88.6009229,37.1631006 88.4973365,37.3663102 C88.39375,37.5695197 88.2458248,37.7259353 88.0535564,37.8355615 C87.861288,37.9451877 87.6392139,38 87.3873274,38 C87.007262,38 86.7002334,37.8780092 86.4662323,37.6340241 C86.2322312,37.3900389 86.1152325,37.0608309 86.1152325,36.6463904 L86.1152325,36.3455882 C86.1152325,36.0795441 86.1677701,35.8439181 86.272847,35.6387032 C86.3779239,35.4334883 86.5265944,35.2757358 86.7188628,35.1654412 C86.9111311,35.0551465 87.13246,35 87.3828561,35 C87.6332521,35 87.8542084,35.0541438 88.0457316,35.1624332 C88.2372547,35.2707225 88.38518,35.4237958 88.4895116,35.6216578 C88.5938433,35.8195197 88.648244,36.0487955 88.6527154,36.309492 L88.6527154,36.6584225 Z M88.3777283,36.3415775 C88.3777283,35.9899715 88.2890476,35.7145732 88.1116838,35.5153743 C87.9343199,35.3161755 87.6913798,35.2165775 87.3828561,35.2165775 C87.0802942,35.2165775 86.8392171,35.3165097 86.6596176,35.516377 C86.480018,35.7162443 86.3902196,35.9953191 86.3902196,36.3536096 L86.3902196,36.6584225 C86.3902196,37.0046809 86.4796454,37.2790765 86.6584997,37.4816176 C86.837354,37.6841588 87.0802942,37.7854278 87.3873274,37.7854278 C87.698832,37.7854278 87.9417722,37.6854957 88.1161551,37.4856283 C88.2905381,37.285761 88.3777283,37.0073547 88.3777283,36.6504011 L88.3777283,36.3415775 Z M89.6786509,36.7707219 L89.6786509,37.959893 L89.4036637,37.959893 L89.4036637,35.040107 L90.512555,35.040107 C90.8508877,35.040107 91.1180473,35.1176463 91.3140419,35.2727273 C91.5100364,35.4278083 91.6080322,35.6410414 91.6080322,35.9124332 C91.6080322,36.1864987 91.5137625,36.3980608 91.3252202,36.5471257 C91.1366779,36.6961906 90.8635566,36.7707219 90.505848,36.7707219 L89.6786509,36.7707219 Z M89.6786509,36.5621658 L90.512555,36.5621658 C90.779346,36.5621658 90.9827897,36.5053482 91.1228923,36.3917112 C91.2629948,36.2780743 91.333045,36.1196534 91.333045,35.9164439 C91.333045,35.7145712 91.2633674,35.5538108 91.1240101,35.4341578 C90.9846528,35.3145047 90.7867982,35.2533423 90.5304403,35.2506684 L89.6786509,35.2506684 L89.6786509,36.5621658 Z M94.078209,36.5601604 L92.5557193,36.5601604 L92.5557193,37.7513369 L94.3062472,37.7513369 L94.3062472,37.959893 L92.2807322,37.959893 L92.2807322,35.040107 L94.2950688,35.040107 L94.2950688,35.2506684 L92.5557193,35.2506684 L92.5557193,36.3516043 L94.078209,36.3516043 L94.078209,36.5601604 Z M96.1593797,36.7446524 L95.2136923,36.7446524 L95.2136923,37.959893 L94.9364695,37.959893 L94.9364695,35.040107 L95.9939403,35.040107 C96.3412158,35.040107 96.6124741,35.115641 96.8077234,35.2667112 C97.0029727,35.4177815 97.1005959,35.6290093 97.1005959,35.9004011 C97.1005959,36.0875678 97.0394882,36.2526731 96.9172711,36.3957219 C96.795054,36.5387708 96.6311067,36.6377003 96.4254242,36.6925134 L97.2392073,37.9338235 L97.2392073,37.959893 L96.9463348,37.959893 L96.1593797,36.7446524 Z M95.2136923,36.5340909 L96.056539,36.5340909 C96.2875592,36.5340909 96.4731177,36.475268 96.6132203,36.3576203 C96.7533228,36.2399727 96.8233731,36.0875678 96.8233731,35.9004011 C96.8233731,35.6945177 96.750342,35.5347599 96.6042776,35.421123 C96.4582133,35.3074861 96.2532791,35.2506684 95.989469,35.2506684 L95.2136923,35.2506684 L95.2136923,36.5340909 Z M98.687663,36.6323529 L99.6825352,35.040107 L100,35.040107 L98.8240387,36.8609626 L98.8240387,37.959893 L98.5490516,37.959893 L98.5490516,36.8609626 L97.375326,35.040107 L97.7017335,35.040107 L98.687663,36.6323529 Z" id="THE-GAPS-IN-PROPERY" fill="#FFF"/><path d="M53.8260952,42.5962567 L52.280062,42.5962567 L52.280062,43.959893 L52,43.959893 L52,41.040107 L54.0537879,41.040107 L54.0537879,41.2506684 L52.280062,41.2506684 L52.280062,42.3856952 L53.8260952,42.3856952 L53.8260952,42.5962567 Z M55.0214333,43.959893 L54.7413713,43.959893 L54.7413713,41.040107 L55.0214333,41.040107 L55.0214333,43.959893 Z M58.4458827,43.959893 L58.1658207,43.959893 L56.260033,41.4612299 L56.260033,43.959893 L55.9776941,43.959893 L55.9776941,41.040107 L56.260033,41.040107 L58.1680976,43.5407754 L58.1680976,41.040107 L58.4458827,41.040107 L58.4458827,43.959893 Z M61.2406816,43.1417112 L59.735633,43.1417112 L59.394094,43.959893 L59.1003704,43.959893 L60.3549571,41.040107 L60.6213575,41.040107 L61.8759441,43.959893 L61.5844975,43.959893 L61.2406816,43.1417112 Z M59.8221562,42.9311497 L61.1518814,42.9311497 L60.4870188,41.3409091 L59.8221562,42.9311497 Z M64.9525795,43.959893 L64.6725175,43.959893 L62.7667298,41.4612299 L62.7667298,43.959893 L62.4843909,43.959893 L62.4843909,41.040107 L62.7667298,41.040107 L64.6747945,43.5407754 L64.6747945,41.040107 L64.9525795,41.040107 L64.9525795,43.959893 Z M68.1994286,43.0494652 C68.1614796,43.3569534 68.0366294,43.5922452 67.8248741,43.7553476 C67.6131189,43.91845 67.3311623,44 66.9789958,44 C66.7330865,44 66.5156422,43.9458562 66.3266563,43.8375668 C66.1376705,43.7292775 65.9915691,43.57587 65.8883479,43.3773396 C65.7851267,43.1788092 65.7327579,42.9518729 65.73124,42.6965241 L65.73124,42.3175134 C65.73124,42.0581538 65.7828498,41.8282096 65.886071,41.6276738 C65.9892922,41.427138 66.1376704,41.2723936 66.3312102,41.1634358 C66.5247499,41.0544781 66.747507,41 66.9994882,41 C67.3546905,41 67.6351292,41.084558 67.8408126,41.2536765 C68.046496,41.422795 68.1660335,41.6564156 68.1994286,41.9545455 L67.9170897,41.9545455 C67.8472636,41.4585537 67.5413995,41.2105615 66.9994882,41.2105615 C66.6989324,41.2105615 66.459478,41.309491 66.2811178,41.5073529 C66.1027576,41.7052149 66.0135789,41.9786079 66.0135789,42.3275401 L66.0135789,42.684492 C66.0135789,43.0213921 66.1004807,43.2901059 66.274287,43.4906417 C66.4480933,43.6911775 66.6829939,43.7914439 66.9789958,43.7914439 C67.2719619,43.7914439 67.4928216,43.7296129 67.6415815,43.6059492 C67.7903415,43.4822855 67.8821766,43.2967927 67.9170897,43.0494652 L68.1994286,43.0494652 Z M70.7677535,42.5601604 L69.2171664,42.5601604 L69.2171664,43.7513369 L71,43.7513369 L71,43.959893 L68.9371044,43.959893 L68.9371044,41.040107 L70.9886154,41.040107 L70.9886154,41.2506684 L69.2171664,41.2506684 L69.2171664,42.3516043 L70.7677535,42.3516043 L70.7677535,42.5601604 Z" id="FINANCE" fill="#FFF"/><path id="Fill-3" fill="#FFF" d="M57.3853775 21.099482L53.8438676 21.099482 53.8438676 23.5105592 58 23.5105592 58 25 52 25 52 16 57.9875173 16 57.9875173 17.5019923 53.8438676 17.5019923 53.8438676 19.6470979 57.3853775 19.6470979 57.3853775 21.099482"/><path d="M64.11366,22.5818899 C64.11366,22.241016 63.9888331,21.9786711 63.7379675,21.7966003 C63.4864958,21.6139478 63.0356648,21.4214064 62.3836565,21.2189762 C61.7322542,21.016546 61.2159799,20.8170243 60.8360457,20.6204111 C59.7998615,20.082924 59.2817694,19.3592942 59.2817694,18.44894 C59.2817694,17.9754395 59.4211392,17.5531282 59.6986669,17.1820062 C59.9768006,16.8114659 60.3755194,16.5217813 60.8954294,16.3129524 C61.4159453,16.1041236 61.9994806,16 62.6472472,16 C63.2992555,16 63.8797611,16.1134307 64.3893698,16.3402921 C64.8995845,16.5665719 65.2952735,16.8865047 65.5770429,17.2995088 C65.8594183,17.7130946 66,18.1819416 66,18.707213 L64.1197195,18.707213 C64.1197195,18.3064245 63.9888331,17.9946355 63.7252424,17.7718459 C63.4616517,17.5490564 63.0920187,17.4379524 62.6157375,17.4379524 C62.1564231,17.4379524 61.7989093,17.5310238 61.5438019,17.7177482 C61.2893006,17.9044726 61.1620499,18.1499483 61.1620499,18.454757 C61.1620499,18.739788 61.3117209,18.9777017 61.6098511,19.170243 C61.9085873,19.3633661 62.3485111,19.5431101 62.9296226,19.7123837 C63.9985284,20.0206825 64.7777874,20.4040202 65.2667936,20.8612332 C65.7557999,21.3184462 66,21.8879266 66,22.5696743 C66,23.3276241 65.7012639,23.9221174 65.1037916,24.3531541 C64.5063193,24.7847725 63.7022161,25 62.690876,25 C61.9891794,25 61.3498961,24.8766805 60.7730263,24.6300414 C60.1967625,24.3834023 59.7568386,24.0460186 59.4538608,23.6161453 C59.150883,23.1874354 59,22.6900853 59,22.1246768 L60.8857341,22.1246768 C60.8857341,23.0908738 61.488054,23.5742632 62.690876,23.5742632 C63.1380713,23.5742632 63.4864958,23.4870088 63.7379675,23.3125 C63.9888331,23.1379912 64.11366,22.8942606 64.11366,22.5818899" id="Fill-4" fill="#FFF"/><path id="Fill-5" fill="#FFF" d="M74 17.5019923L71.3677945 17.5019923 71.3677945 25 69.5973909 25 69.5973909 17.5019923 67 17.5019923 67 16 74 16 74 17.5019923"/><path d="M76.9303676,21.6439766 L79.0633987,21.6439766 L77.9912163,18.2748041 L76.9303676,21.6439766 Z M79.5382872,23.1459689 L76.4554792,23.1459689 L75.8689523,25 L74,25 L77.1763122,16 L78.8055536,16 L82,25 L80.130481,25 L79.5382872,23.1459689 Z" id="Fill-6" fill="#FFF"/></g><path id="Fill-7" fill="#FFF" d="M89 17.5019923L86.3680091 17.5019923 86.3680091 25 84.5966085 25 84.5966085 17.5019923 82 17.5019923 82 16 89 16 89 17.5019923"/><path id="Fill-8" fill="#FFF" d="M96.3853166 21.099482L92.8440503 21.099482 92.8440503 23.5105592 97 23.5105592 97 25 91 25 91 16 96.9881106 16 96.9881106 17.5019923 92.8440503 17.5019923 92.8440503 19.6470979 96.3853166 19.6470979 96.3853166 21.099482"/><path d="M106,23.7726215 C105.682077,24.1617761 105.232541,24.4636763 104.650822,24.6783221 C104.069673,24.8923862 103.425281,25 102.718216,25 C101.975826,25 101.324027,24.8347983 100.765098,24.5038133 C100.2056,24.1728283 99.7731564,23.6923475 99.4689077,23.0629524 C99.1635195,22.4335574 99.0079766,21.6930584 99,20.8432006 L99,20.247544 C99,19.3732549 99.1441478,18.6164685 99.4330132,17.9766029 C99.7218786,17.3367373 100.137799,16.847531 100.681914,16.5084023 C101.226599,16.1698552 101.864154,16 102.594579,16 C103.61159,16 104.407537,16.2478025 104.98071,16.7434074 C105.554452,17.2384307 105.894595,17.959152 106,18.9055714 L104.279912,18.9055714 C104.201286,18.4041494 104.027511,18.037681 103.758017,17.8050026 C103.489093,17.5723242 103.119323,17.455985 102.647566,17.455985 C102.046476,17.455985 101.588393,17.6869183 101.275028,18.1476215 C100.960524,18.6094881 100.800993,19.294726 100.797574,20.2050801 L100.797574,20.7646717 C100.797574,21.6831696 100.967931,22.3771329 101.309783,22.8465615 C101.651636,23.3154085 102.15302,23.5504137 102.812795,23.5504137 C103.476559,23.5504137 103.950024,23.4061531 104.232622,23.1170502 L104.232622,21.6069674 L102.624206,21.6069674 L102.624206,20.2777921 L106,20.2777921 L106,23.7726215" id="Fill-9" fill="#FFF"/><path d="M116,16 L116,21.8474943 C116,22.8191287 115.687662,23.5873567 115.062381,24.1521782 C114.437099,24.7175893 113.583174,25 112.500606,25 C111.433807,25 110.58716,24.7258434 109.959452,24.1769407 C109.332958,23.628038 109.012736,22.87396 109,21.9147068 L109,16 L110.88191,16 L110.88191,21.8598755 C110.88191,22.4412054 111.025039,22.8651163 111.311904,23.1310187 C111.597557,23.3975106 111.994195,23.5307566 112.500606,23.5307566 C113.558309,23.5307566 114.095651,22.9901081 114.112026,21.908811 L114.112026,16 L116,16" id="Fill-10" fill="#FFF"/><path d="M119.851906,20.2035463 L121.345724,20.2035463 C121.81064,20.2035463 122.170518,20.0852039 122.425356,19.8479214 C122.680791,19.6112366 122.808509,19.2843007 122.808509,18.8683092 C122.808509,18.4439501 122.687953,18.1098419 122.446841,17.8665825 C122.206326,17.6239208 121.837497,17.5019923 121.339159,17.5019923 L119.851906,17.5019923 L119.851906,20.2035463 Z M121.326626,21.7055386 L119.851906,21.7055386 L119.851906,25 L118,25 L118,16 L121.339159,16 C122.400887,16 123.219712,16.2372825 123.795635,16.7112498 C124.372154,17.1846195 124.659818,17.8546288 124.659818,18.7194847 C124.659818,19.3339089 124.527325,19.8461283 124.261744,20.2561429 C123.99676,20.6661575 123.593913,20.9924957 123.055589,21.2357551 L125,24.9139328 L125,25 L123.012618,25 L121.326626,21.7055386 Z" id="Fill-11" fill="#FFF"/><path d="M134,16 L134,21.8474943 C134,22.8191287 133.687635,23.5873567 133.0623,24.1521782 C132.436964,24.7175893 131.582965,25 130.499697,25 C129.434018,25 128.586691,24.7258434 127.959536,24.1769407 C127.33238,23.628038 127.011524,22.87396 127,21.9147068 L127,16 L128.881466,16 L128.881466,21.8598755 C128.881466,22.4412054 129.024608,22.8651163 129.311498,23.1310187 C129.597782,23.3975106 129.993848,23.5307566 130.499697,23.5307566 C131.558097,23.5307566 132.094879,22.9901081 132.112469,21.908811 L132.112469,16 L134,16" id="Fill-12" fill="#FFF"/></g></g></g></g></svg>