<?xml version="1.0" encoding="UTF-8"?>
<svg width="20px" height="20px" viewBox="0 0 20 20" version="1.1" xmlns="http://www.w3.org/2000/svg" xmlns:xlink="http://www.w3.org/1999/xlink">
    <!-- Generator: sketchtool 57.1 (101010) - https://sketch.com -->
    <title>13EE8C8D-B47B-4374-8257-7DB40AF59E97</title>
    <desc>Created with sketchtool.</desc>
    <g id="Page-1" stroke="none" stroke-width="1" fill="none" fill-rule="evenodd">
        <g id="Loan_states_and_row_hover_001" transform="translate(-1027.000000, -742.000000)" fill-rule="nonzero">
            <g id="loan.default" transform="translate(1025.000000, 740.000000)">
                <rect id="Rectangle-Copy-5" x="0" y="0" width="24" height="24"></rect>
                <g id="Group-12-Copy-2" transform="translate(2.000000, 2.000000)">
                    <path d="M10,16.95 C6.135,16.95 3,13.815 3,9.95 C3,6.425 5.61,3.515 9,3.03 L9,1.36779477e-13 C3.94,0.5 9.23705556e-14,4.765 9.23705556e-14,9.95 C9.23705556e-14,15.475 4.47,19.95 9.995,19.95 C13.305,19.95 16.23,18.335 18.05,15.86 L15.455,14.33 C14.175,15.925 12.21,16.95 10,16.95 Z" id="Shape-Copy-27" fill="#40C0E9"></path>
                    <path d="M11,-8.8817842e-15 L11,3.03 C14.39,3.515 17,6.425 17,9.95 C17,10.845 16.825,11.7 16.52,12.485 L19.12,14.02 C19.675,12.775 20,11.405 20,9.95 C20,4.765 16.055,0.505 11,-8.8817842e-15 Z" id="Shape-Copy-28" fill="#E15D8D"></path>
                </g>
            </g>
        </g>
    </g>
</svg>