<?xml version="1.0" encoding="UTF-8"?>
<svg width="346px" height="153px" viewBox="0 0 346 153" version="1.1" xmlns="http://www.w3.org/2000/svg" xmlns:xlink="http://www.w3.org/1999/xlink">
    <!-- Generator: sketchtool 60.1 (101010) - https://sketch.com -->
    <title>AB122F9F-E96F-4C7E-8CA6-21D504FB5A2C@3x</title>
    <desc>Created with sketchtool.</desc>
    <g id="Page-1" stroke="none" stroke-width="1" fill="none" fill-rule="evenodd">
        <g id="Borrower_main_DT_001" transform="translate(-547.000000, -4495.000000)" fill="#00AAE1">
            <g id="Group-60" transform="translate(720.500000, 4568.000000) scale(1, -1) translate(-720.500000, -4568.000000) translate(360.000000, 4488.000000)">
                <path d="M393.919678,-609.877819 L734.765298,-269.46256 C753.522302,-250.729239 753.541501,-220.337326 734.80818,-201.580322 C734.793895,-201.566019 734.779601,-201.551725 734.765298,-201.53744 L393.919678,138.877819 C375.179429,157.594406 344.820571,157.594406 326.080322,138.877819 L-14.765298,-201.53744 C-33.5223018,-220.270761 -33.5415008,-250.662674 -14.80818,-269.419678 L-14.765298,-269.46256 L-14.765298,-269.46256 L326.080322,-609.877819 C344.820571,-628.594406 375.179429,-628.594406 393.919678,-609.877819 Z M379.786479,-517.84696 C368.854667,-528.764969 351.145333,-528.764969 340.213521,-517.84696 L340.213521,-517.84696 L77.3461518,-255.311493 C77.3378083,-255.30316 77.3294702,-255.294822 77.3211373,-255.286479 C66.3933668,-244.344893 66.4045662,-226.616277 77.3461518,-215.688507 L77.3461518,-215.688507 L340.213521,46.8469595 C351.145333,57.7649686 368.854667,57.7649686 379.786479,46.8469595 L379.786479,46.8469595 L642.653848,-215.688507 L642.653848,-215.688507 L642.678863,-215.713521 C653.606633,-226.655107 653.595434,-244.383723 642.653848,-255.311493 L642.653848,-255.311493 Z" id="Combined-Shape"></path>
            </g>
        </g>
    </g>
</svg>