<?xml version="1.0" encoding="UTF-8"?>
<svg width="128px" height="128px" viewBox="0 0 128 128" version="1.1" xmlns="http://www.w3.org/2000/svg" xmlns:xlink="http://www.w3.org/1999/xlink">
    <!-- Generator: Sketch 56.3 (81716) - https://sketch.com -->
    <title>Icon_05</title>
    <desc>Created with Sketch.</desc>
    <defs>
        <linearGradient x1="100%" y1="77.7573526%" x2="-5.38834153%" y2="112.856212%" id="linearGradient-1">
            <stop stop-color="#029FFE" offset="0%"></stop>
            <stop stop-color="#FFFFFF" stop-opacity="0" offset="100%"></stop>
        </linearGradient>
    </defs>
    <g id="Icon_05" stroke="none" stroke-width="1" fill="none" fill-rule="evenodd">
        <g id="ICON_5-Copy">
            <rect id="Rectangle" fill-opacity="0" fill="#FFFFFF" x="0" y="0" width="128" height="128"></rect>
            <circle id="Oval-Copy-10" fill="#FFFFFF" cx="64" cy="64" r="52"></circle>
            <circle id="Oval-Copy-8" fill="url(#linearGradient-1)" cx="64" cy="64" r="50"></circle>
            <circle id="Oval-Copy-10" fill="#FFFFFF" cx="64" cy="64" r="49"></circle>
            <path d="M63,115 C81.2638439,115 98.399835,104.620911 107.125459,90 L13,65 C13,92.6142375 35.3857625,115 63,115 Z" id="Oval-Copy-11" fill="#FFFFFF"></path>
            <circle id="Oval" stroke="#03A0FE" fill="#FFFFFF" cx="106.5" cy="89.5" r="3"></circle>
            <path d="M68.312,51.8666667 L68.312,47.5546667 L59.688,47.5546667 L59.688,51.8666667 L68.312,51.8666667 Z M81.1453333,51.8666667 C82.3431171,51.8666667 83.3441071,52.2858847 84.1483333,53.1243333 C84.9525596,53.962782 85.3546667,54.9808829 85.3546667,56.1786667 L85.3546667,79.638 C85.3546667,80.8357838 84.9525596,81.8538847 84.1483333,82.6923333 C83.3441071,83.530782 82.3431171,83.95 81.1453333,83.95 L46.8546667,83.95 C45.6568829,83.95 44.6558929,83.530782 43.8516667,82.6923333 C43.0474404,81.8538847 42.6453333,80.8357838 42.6453333,79.638 L42.6453333,56.1786667 C42.6453333,54.9808829 43.0474404,53.962782 43.8516667,53.1243333 C44.6558929,52.2858847 45.6568829,51.8666667 46.8546667,51.8666667 L55.4786667,51.8666667 L55.4786667,47.5546667 C55.4786667,46.3568829 55.8807738,45.3558929 56.685,44.5516667 C57.4892262,43.7474404 58.4902162,43.3453333 59.688,43.3453333 L68.312,43.3453333 C69.5097838,43.3453333 70.5107738,43.7474404 71.315,44.5516667 C72.1192262,45.3558929 72.5213333,46.3568829 72.5213333,47.5546667 L72.5213333,51.8666667 L81.1453333,51.8666667 Z" id="" fill="#40C0E9" fill-rule="nonzero"></path>
        </g>
    </g>
</svg>