<?xml version="1.0" encoding="UTF-8"?>
<svg width="128px" height="128px" viewBox="0 0 128 128" version="1.1" xmlns="http://www.w3.org/2000/svg" xmlns:xlink="http://www.w3.org/1999/xlink">
    <!-- Generator: Sketch 56.3 (81716) - https://sketch.com -->
    <title>Icon_03</title>
    <desc>Created with Sketch.</desc>
    <defs>
        <linearGradient x1="100%" y1="77.7573526%" x2="-5.38834153%" y2="112.856212%" id="linearGradient-1">
            <stop stop-color="#029FFE" offset="0%"></stop>
            <stop stop-color="#FFFFFF" stop-opacity="0" offset="100%"></stop>
        </linearGradient>
    </defs>
    <g id="Icon_03" stroke="none" stroke-width="1" fill="none" fill-rule="evenodd">
        <g id="ICON_3-Copy">
            <g id="Group-3-Copy-4">
                <circle id="Oval-Copy-10" fill="#FFFFFF" cx="64" cy="64" r="52"></circle>
                <circle id="Oval-Copy-8" fill="url(#linearGradient-1)" cx="64" cy="64" r="50"></circle>
                <circle id="Oval-Copy-10" fill="#FFFFFF" cx="64" cy="64" r="49"></circle>
                <path d="M63,115 C81.2638439,115 98.399835,104.620911 107.125459,90 L13,65 C13,92.6142375 35.3857625,115 63,115 Z" id="Oval-Copy-11" fill="#FFFFFF"></path>
                <circle id="Oval" stroke="#03A0FE" fill="#FFFFFF" cx="106.5" cy="89.5" r="3"></circle>
            </g>
            <g id="Group-Copy-7" transform="translate(36.000000, 36.000000)" fill-rule="nonzero">
                <rect id="Rectangle" x="0" y="0" width="56" height="56"></rect>
                <path d="M28,51.3333333 C15.1133558,51.3333333 4.66666667,40.8866442 4.66666667,28 C4.66666667,15.1133558 15.1133558,4.66666667 28,4.66666667 C40.8866442,4.66666667 51.3333333,15.1133558 51.3333333,28 C51.3333333,40.8866442 40.8866442,51.3333333 28,51.3333333 Z M34.1782561,30.9144666 L31.5571572,30.9144666 C30.9684423,30.9144666 30.9149845,31.1674871 30.8356003,31.7090799 C30.6211518,33.0138264 29.418413,33.8119566 27.9741882,33.8119566 C26.3160705,33.8119566 24.9816008,32.4605321 24.8741296,30.9103104 L28.5803725,30.9103104 C29.0351342,30.9103104 29.3559427,30.7476407 29.3559427,30.1220913 L29.3559427,29.3444228 C29.3559427,28.7205999 29.0351342,28.5760259 28.5803725,28.5760259 L24.8477094,28.5760259 L24.8477094,27.4170044 L28.5803725,27.4170044 C29.0351342,27.4170044 29.3559427,27.2549102 29.3559427,26.6287853 L29.3559427,25.8510528 C29.3559427,25.2266544 29.0351342,25.0628338 28.5803725,25.0628338 L24.9011672,25.0628338 C25.0885781,23.6496408 26.3786025,22.1606121 27.9567805,22.1606121 C29.4010053,22.1606121 30.2199097,22.750034 30.7827598,23.6466995 C30.9966527,23.9731898 31.0236286,24.4885663 31.5853676,24.4885663 L34.1704164,24.4885663 C34.7856132,24.4885663 35,24.2611868 35,23.6099965 C34.6521539,20.1597238 31.3455482,18.6666667 28.0282016,18.6666667 C24.8735741,18.6666667 20.9770807,20.8779897 20.8965853,25.0622583 L19.4422369,25.0622583 C18.9616105,25.0622583 18.6666667,25.224928 18.6666667,25.8504773 L18.6666667,26.6282098 C18.6666667,27.2531837 18.9610549,27.4164289 19.4422369,27.4164289 L20.3675013,27.4164289 L20.3675013,28.5748749 L19.4422369,28.5748749 C18.9616105,28.5748749 18.6666667,28.7375446 18.6666667,29.363094 L18.6666667,30.1227308 C18.6666667,30.7465537 18.9610549,30.9109498 19.4422369,30.9109498 L20.8949186,30.9109498 L20.8949186,31.0205472 C20.8949186,35.2858309 24.7919676,37.3333333 27.9741882,37.3333333 C31.2914731,37.3333333 34.9802465,35.2701011 34.9802465,31.7638787 C34.9802465,31.1120489 34.7664153,30.9144666 34.1782561,30.9144666 Z" id="Combined-Shape" fill="#40C0E9"></path>
            </g>
        </g>
    </g>
</svg>