<?xml version="1.0" encoding="UTF-8"?>
<svg width="128px" height="128px" viewBox="0 0 128 128" version="1.1" xmlns="http://www.w3.org/2000/svg" xmlns:xlink="http://www.w3.org/1999/xlink">
    <!-- Generator: Sketch 56.3 (81716) - https://sketch.com -->
    <title>Icon_04</title>
    <desc>Created with Sketch.</desc>
    <defs>
        <linearGradient x1="100%" y1="77.7573526%" x2="-5.38834153%" y2="112.856212%" id="linearGradient-1">
            <stop stop-color="#029FFE" offset="0%"></stop>
            <stop stop-color="#FFFFFF" stop-opacity="0" offset="100%"></stop>
        </linearGradient>
    </defs>
    <g id="Icon_04" stroke="none" stroke-width="1" fill="none" fill-rule="evenodd">
        <g id="ICON_4-Copy">
            <g id="Group-3-Copy-5">
                <rect id="Rectangle" fill-opacity="0" fill="#D8D8D8" opacity="0.5" x="0" y="0" width="128" height="128"></rect>
                <circle id="Oval-Copy-10" fill="#FFFFFF" cx="64" cy="64" r="52"></circle>
                <circle id="Oval-Copy-8" fill="url(#linearGradient-1)" cx="64" cy="64" r="50"></circle>
                <circle id="Oval-Copy-10" fill="#FFFFFF" cx="64" cy="64" r="49"></circle>
                <path d="M63,115 C81.2638439,115 98.399835,104.620911 107.125459,90 L13,65 C13,92.6142375 35.3857625,115 63,115 Z" id="Oval-Copy-11" fill="#FFFFFF"></path>
                <circle id="Oval" stroke="#03A0FE" fill="#FFFFFF" cx="106.5" cy="89.5" r="3"></circle>
            </g>
            <g id="Group-2-Copy-5" transform="translate(36.000000, 36.000000)" fill-rule="nonzero">
                <g id="Group">
                    <rect id="Rectangle" x="0" y="0" width="56" height="56"></rect>
                    <path d="M21.5833333,30.8046667 C23.123341,30.8046667 24.834435,31.0099979 26.7166667,31.4206667 C24.7659902,32.4815609 23.3628932,33.7819923 22.5073333,35.322 C21.8913303,36.451339 21.5833333,37.6148829 21.5833333,38.8126667 L21.5833333,43.638 L6.64533333,43.638 L6.64533333,38.2993333 C6.64533333,36.7593256 7.56932409,35.3733395 9.41733333,34.1413333 C10.957341,33.1146615 12.976432,32.2762255 15.4746667,31.626 C17.6991222,31.0784417 19.7353241,30.8046667 21.5833333,30.8046667 Z M37.6506667,33.012 C39.0880072,33.012 40.6793246,33.2173313 42.4246667,33.628 C44.3753431,34.1413359 45.9666605,34.7915516 47.1986667,35.5786667 C48.6360072,36.5368937 49.3546667,37.6148829 49.3546667,38.8126667 L49.3546667,43.638 L25.8953333,43.638 L25.8953333,38.8126667 C25.8953333,37.6148829 26.6139928,36.5368937 28.0513333,35.5786667 C29.2833395,34.7915516 30.8746569,34.1413359 32.8253333,33.628 C34.5706754,33.2173313 36.1791038,33.012 37.6506667,33.012 Z M21.5833333,26.5953333 C20.4539944,26.5953333 19.3931161,26.3044474 18.4006667,25.7226667 C17.4082173,25.140886 16.621114,24.3537827 16.0393333,23.3613333 C15.4575526,22.3688839 15.1666667,21.3080056 15.1666667,20.1786667 C15.1666667,19.0493277 15.4575526,17.9884494 16.0393333,16.996 C16.621114,16.0035506 17.4082173,15.2164474 18.4006667,14.6346667 C19.3931161,14.052886 20.4539944,13.762 21.5833333,13.762 C22.7126723,13.762 23.7735506,14.052886 24.766,14.6346667 C25.7584494,15.2164474 26.5455526,16.0035506 27.1273333,16.996 C27.709114,17.9884494 28,19.0493277 28,20.1786667 C28,21.3080056 27.709114,22.3688839 27.1273333,23.3613333 C26.5455526,24.3537827 25.7584494,25.140886 24.766,25.7226667 C23.7735506,26.3044474 22.7126723,26.5953333 21.5833333,26.5953333 Z M37.6506667,28.7 C36.6924397,28.7 35.8026708,28.4604468 34.9813333,27.9813333 C34.1599959,27.5022198 33.5097802,26.8520041 33.0306667,26.0306667 C32.5515532,25.2093292 32.312,24.3195603 32.312,23.3613333 C32.312,22.4031063 32.5515532,21.5133374 33.0306667,20.692 C33.5097802,19.8706626 34.1599959,19.2118914 34.9813333,18.7156667 C35.8026708,18.219442 36.6924397,17.9713333 37.6506667,17.9713333 C38.6088937,17.9713333 39.4901071,18.219442 40.2943333,18.7156667 C41.0985596,19.2118914 41.7402198,19.8706626 42.2193333,20.692 C42.6984468,21.5133374 42.938,22.4031063 42.938,23.3613333 C42.938,24.3195603 42.6984468,25.2007738 42.2193333,26.005 C41.7402198,26.8092262 41.0900041,27.459442 40.2686667,27.9556667 C39.4473292,28.4518914 38.5746713,28.7 37.6506667,28.7 Z" id="supervisor_account---material" fill="#40C0E9"></path>
                </g>
            </g>
        </g>
    </g>
</svg>