<?xml version="1.0" encoding="UTF-8"?>
<svg width="50px" height="31px" viewBox="0 0 50 31" version="1.1" xmlns="http://www.w3.org/2000/svg" xmlns:xlink="http://www.w3.org/1999/xlink">
    <!-- Generator: sketchtool 55.2 (78181) - https://sketchapp.com -->
    <title>5D25F214-FD99-4D73-9EBF-BDA3B4314545</title>
    <desc>Created with sketchtool.</desc>
    <g id="Page-1" stroke="none" stroke-width="1" fill="none" fill-rule="evenodd">
        <g id="assets" transform="translate(-824.000000, -1873.000000)">
            <g id="Group" transform="translate(817.000000, 1856.000000)">
                <rect id="Rectangle" fill-rule="nonzero" x="0" y="0" width="64" height="64"></rect>
                <path d="M17.2536701,40.5747408 C11.4656707,39.8050511 7,34.8442355 7,28.839218 C7,22.3005985 12.294565,17 18.825742,17 C25.3569189,17 30.6514839,22.3005985 30.6514839,28.839218 C30.6514839,29.3122648 30.623772,29.7788318 30.5698848,30.2373805 C30.5810179,30.2366835 30.5921458,30.2359831 30.6032684,30.2352791 C29.9058769,40.0520992 21.7300414,47.7992681 11.7468171,47.7992681 C11.5537116,47.7992681 11.3612823,47.7963695 11.1695703,47.7906134 C13.7575759,45.9456707 15.8615492,43.4643526 17.2536701,40.5747408 Z M43.6021862,40.5747408 C37.8141868,39.8050511 33.3485161,34.8442355 33.3485161,28.839218 C33.3485161,22.3005985 38.6430811,17 45.174258,17 C51.705435,17 57,22.3005985 57,28.839218 C57,29.3122648 56.9722881,29.7788318 56.9184009,30.2373805 C56.9295339,30.2366835 56.9406618,30.2359831 56.9517845,30.2352791 C56.254393,40.0520992 48.0785574,47.7992681 38.0953332,47.7992681 C37.9022276,47.7992681 37.7097983,47.7963695 37.5180863,47.7906134 C40.106092,45.9456707 42.2100653,43.4643526 43.6021862,40.5747408 Z" id="Combined-Shape" fill="#40C0E9"></path>
            </g>
        </g>
    </g>
</svg>