<?xml version="1.0" encoding="utf-8"?>
<!-- Generator: Adobe Illustrator 20.1.0, SVG Export Plug-In . SVG Version: 6.00 Build 0)  -->
<svg version="1.1" id="Layer_1" xmlns="http://www.w3.org/2000/svg" xmlns:xlink="http://www.w3.org/1999/xlink" x="0px" y="0px"
	 viewBox="0 0 127 43" style="enable-background:new 0 0 127 43;" xml:space="preserve">
<style type="text/css">
	.st0{fill:#00AAE1;}
	.st1{fill:#FFFFFF;}
</style>
<title>id/eg-logo</title>
<desc>Created with Sketch.</desc>
<g id="Symbols">
	<g id="header_x2F_register-onboarding" transform="translate(-43.000000, -17.000000)">
		<g id="identity_x2F_eg-logo-negative-color" transform="translate(43.000000, 17.000000)">
			<path id="Shape" class="st0" d="M32.7,12.6L18.5,0L4.4,12.6C1.6,15,0,18.5,0,22.2v8.3C0,37.4,5.4,43,12.2,43h0.3c1,0,3.4,0,6.1,0
				s5,0,6.1,0h0.3C31.6,43,37,37.4,37,30.5v-8.3C37,18.5,35.4,15,32.7,12.6z M33.8,30.5c0,5-4,9.1-8.8,9.1h-0.3
				c-1.1,0-3.4-0.1-6.2-0.1s-5.1,0-6.1,0.1h-0.2c-4.9,0-8.9-4.1-8.9-9.1v-8.3c0-2.7,1.2-5.3,3.2-7l12-10.7l12.1,10.8
				c2,1.8,3.2,4.3,3.2,7V30.5z M29.5,16.4l-11-9.8l-11,9.8c-1.7,1.4-2.7,3.5-2.6,5.8v8.3c0,4.1,3.2,7.5,7.2,7.5h0.2
				c1.1,0,3.5-0.1,6.2-0.1s5.1,0,6.2,0.1h0.2c4,0,7.2-3.3,7.2-7.5v-8.3C32.1,20,31.2,17.9,29.5,16.4z M28.9,30.5
				c0,2.3-1.8,4.1-4,4.1h-0.1c-1.1,0-3.5-0.1-6.3-0.1s-5.2,0-6.3,0.1h-0.1c-2.2,0-4-1.9-4-4.1v-8.3c0-1.2,0.6-2.4,1.5-3.2l8.9-7.9
				l8.9,8c0.9,0.8,1.5,2,1.5,3.2L28.9,30.5z M26.4,20.2l-7.9-7l-7.9,7c-0.6,0.5-0.9,1.2-0.9,1.9v8.3c0,0.7,0.3,1.3,0.7,1.8
				c0.4,0.5,1.1,0.7,1.7,0.7c2.4-0.1,10.3-0.1,12.7,0h0.1c0.6,0,1.2-0.2,1.6-0.7c0.5-0.5,0.7-1.1,0.7-1.8v-8.3
				C27.3,21.4,26.9,20.7,26.4,20.2L26.4,20.2z M24,29.7c-1.4,0-3.5,0-5.5,0s-4.1,0-5.5,0v-7.1l5.5-4.9l5.5,4.9V29.7z"/>
			<polygon id="Shape_1_" class="st1" points="51.4,26.1 47.8,26.1 47.8,28.5 52,28.5 52,30 46,30 46,21 52,21 52,22.5 47.8,22.5
				47.8,24.6 51.4,24.6 			"/>
			<path id="Shape_2_" class="st1" d="M59.1,27.6c0-0.3-0.1-0.6-0.4-0.8c-0.3-0.2-0.7-0.4-1.4-0.6c-0.5-0.2-1-0.4-1.5-0.6
				c-1-0.5-1.6-1.3-1.6-2.2c0-0.5,0.1-0.9,0.4-1.3c0.3-0.4,0.7-0.7,1.2-0.9c0.6-0.2,1.1-0.3,1.7-0.3c0.6,0,1.2,0.1,1.7,0.3
				c0.5,0.2,0.9,0.5,1.2,1c0.3,0.4,0.4,0.9,0.4,1.4h-1.9c0-0.4-0.1-0.7-0.4-0.9c-0.3-0.2-0.6-0.3-1.1-0.3s-0.8,0.1-1.1,0.3
				c-0.2,0.2-0.4,0.4-0.4,0.7c0,0.3,0.1,0.5,0.4,0.7c0.4,0.2,0.9,0.4,1.3,0.5c1.1,0.3,1.8,0.7,2.3,1.1c0.5,0.4,0.8,1.1,0.7,1.7
				c0,0.8-0.3,1.4-0.9,1.8c-0.6,0.4-1.4,0.6-2.4,0.6c-0.7,0-1.3-0.1-1.9-0.4c-0.5-0.2-1-0.6-1.3-1c-0.3-0.4-0.5-1-0.5-1.5h1.9
				c0,1,0.6,1.5,1.8,1.4c0.4,0,0.8-0.1,1-0.3C59,28.1,59.1,27.9,59.1,27.6"/>
			<polygon id="Shape_3_" class="st1" points="69,22.5 66.4,22.5 66.4,30 64.6,30 64.6,22.5 62,22.5 62,21 69,21 			"/>
			<path id="Shape_4_" class="st1" d="M73.5,28.1h-3.1L69.9,30H68l3.2-9h1.6l3.2,9h-1.9L73.5,28.1z M70.9,26.6h2.1L72,23.3
				L70.9,26.6z"/>
			<polygon id="Shape_5_" class="st1" points="83,22.5 80.4,22.5 80.4,30 78.6,30 78.6,22.5 76,22.5 76,21 83,21 			"/>
			<polygon id="Shape_6_" class="st1" points="90.4,26.1 86.8,26.1 86.8,28.5 91,28.5 91,30 85,30 85,21 91,21 91,22.5 86.8,22.5
				86.8,24.6 90.4,24.6 			"/>
			<path id="Shape_7_" class="st1" d="M100,28.8c-0.4,0.4-0.8,0.7-1.3,0.9C98,29.9,97.4,30,96.7,30c-0.7,0-1.4-0.2-2-0.5
				c-0.6-0.3-1-0.8-1.3-1.4c-0.3-0.7-0.5-1.5-0.5-2.2v-0.6c0-0.8,0.1-1.6,0.4-2.3c0.3-0.6,0.7-1.1,1.2-1.5c0.6-0.3,1.2-0.5,1.9-0.5
				c1,0,1.8,0.2,2.4,0.7c0.6,0.5,0.9,1.2,1,2.2h-1.7c-0.1-0.5-0.3-0.9-0.5-1.1c-0.3-0.2-0.6-0.4-1.1-0.4c-0.6,0-1.1,0.2-1.4,0.7
				c-0.3,0.5-0.5,1.1-0.5,2.1v0.6c0,0.9,0.2,1.6,0.5,2.1s0.8,0.7,1.5,0.7c0.7,0,1.1-0.1,1.4-0.4v-1.5h-1.6v-1.3h3.4L100,28.8z"/>
			<path id="Shape_8_" class="st1" d="M110,21v5.8c0,1-0.3,1.7-0.9,2.3c-0.6,0.6-1.5,0.8-2.6,0.8c-1.1,0-1.9-0.3-2.5-0.8
				c-0.6-0.5-0.9-1.3-1-2.3V21h1.9v5.9c0,0.6,0.1,1,0.4,1.3s0.7,0.4,1.2,0.4c1.1,0,1.6-0.5,1.6-1.6V21H110z"/>
			<path id="Shape_9_" class="st1" d="M115.3,26.7h-1.5V30H112v-9h3.3c1.1,0,1.9,0.2,2.5,0.7c0.6,0.5,0.9,1.1,0.9,2
				c0,0.6-0.1,1.1-0.4,1.5c-0.3,0.4-0.7,0.8-1.2,1l1.9,3.7V30h-2L115.3,26.7z M113.9,25.2h1.5c0.5,0,0.8-0.1,1.1-0.4
				c0.3-0.3,0.4-0.6,0.4-1c0-0.4-0.1-0.8-0.4-1s-0.6-0.4-1.1-0.4h-1.5L113.9,25.2z"/>
			<path id="Shape_10_" class="st1" d="M127,21v5.8c0,1-0.3,1.7-0.9,2.3c-0.6,0.6-1.5,0.8-2.6,0.8c-1.1,0-1.9-0.3-2.5-0.8
				c-0.6-0.5-0.9-1.3-1-2.3V21h1.9v5.9c0,0.6,0.1,1,0.4,1.3s0.7,0.4,1.2,0.4c1.1,0,1.6-0.5,1.6-1.6V21H127z"/>
		</g>
	</g>
</g>
</svg>
