<?xml version="1.0" encoding="UTF-8"?>
<svg width="24px" height="24px" viewBox="0 0 24 24" version="1.1" xmlns="http://www.w3.org/2000/svg" xmlns:xlink="http://www.w3.org/1999/xlink">
    <!-- Generator: Sketch 52.4 (67378) - http://www.bohemiancoding.com/sketch -->
    <title>flag/uk</title>
    <desc>Created with Sketch.</desc>
    <defs>
        <path d="M11.9386505,2 L12.0613495,2 C14.1545843,2 15.929139,2.41771525 17.3958057,3.20209717 C18.8624723,3.98647908 20.0135209,5.13752767 20.7979028,6.60419433 C21.5822847,8.070861 22,9.84541565 22,11.9386505 L22,12.0613495 C22,14.1545843 21.5822847,15.929139 20.7979028,17.3958057 C20.0135209,18.8624723 18.8624723,20.0135209 17.3958057,20.7979028 C15.929139,21.5822847 14.1545843,22 12.0613495,22 L11.9386505,22 C9.84541565,22 8.070861,21.5822847 6.60419433,20.7979028 C5.13752767,20.0135209 3.98647908,18.8624723 3.20209717,17.3958057 C2.41771525,15.929139 2,14.1545843 2,12.0613495 L2,11.9386505 C2,9.84541565 2.41771525,8.070861 3.20209717,6.60419433 C3.98647908,5.13752767 5.13752767,3.98647908 6.60419433,3.20209717 C8.070861,2.41771525 9.84541565,2 11.9386505,2 Z" id="path-1"></path>
    </defs>
    <g id="flag/uk" stroke="none" stroke-width="1" fill="none" fill-rule="evenodd">
        <mask id="mask-2" fill="white">
            <use xlink:href="#path-1"></use>
        </mask>
        <use id="Mask" fill="#D8D8D8" xlink:href="#path-1"></use>
        <g id="Group-29" mask="url(#mask-2)" fill-rule="nonzero">
            <g transform="translate(-8.000000, 0.000000)">
                <rect id="Rectangle" fill="#00247D" x="8" y="0" width="24" height="24"></rect>
                <polygon id="Path" fill="#FFFFFF" points="18.1553558 12 6.43798828 4.34898879 7.299354 1.65878246 19.9956104 9.9489722 33.7655874 1.80709135 34.6269531 3.64788862 21.835865 12 34.6269531 20.3521114 33.7655874 22.1929087 19.9956104 14.0510278 7.299354 22.3412175 6.43798828 19.6510112"></polygon>
                <polygon id="Path" fill="#CF142B" points="19.7676228 12 7.88357622 20.3783709 8.16469908 21.0270366 20.3682244 12.4234301 33.6230363 21.7682041 33.9041592 21.1195383 20.968826 12 33.9041592 2.88046166 33.6230363 2.23179587 20.3682244 11.5765699 8.16469908 2.97296336 7.88357622 3.62162915"></polygon>
                <polygon id="Path" fill="#FFFFFF" points="17.2 8.64285714 17.2 0.5 22.8 0.5 22.8 8.64285714 40 8.64285714 40 14.6428571 22.8 14.6428571 22.8 24.5 17.2 24.5 17.2 14.6428571 0 14.6428571 0 8.64285714"></polygon>
                <polygon id="Path" fill="#CF142B" points="18.4255319 9.98 1.5 9.98 1.5 13.34 18.4255319 13.34 18.4255319 23 21.5744681 23 21.5744681 13.34 38.5 13.34 38.5 9.98 21.5744681 9.98 21.5744681 2 18.4255319 2"></polygon>
            </g>
        </g>
        <rect id="Rectangle" fill-rule="nonzero" x="0" y="0" width="24" height="24"></rect>
    </g>
</svg>