<?xml version="1.0" standalone="no"?>
<!DOCTYPE svg PUBLIC "-//W3C//DTD SVG 20010904//EN"
 "http://www.w3.org/TR/2001/REC-SVG-20010904/DTD/svg10.dtd">
<svg version="1.0" xmlns="http://www.w3.org/2000/svg"
 width="688.000000pt" height="688.000000pt" viewBox="0 0 688.000000 688.000000"
 preserveAspectRatio="xMidYMid meet">
<metadata>
Created by potrace 1.11, written by Peter Selinger 2001-2013
</metadata>
<g transform="translate(0.000000,688.000000) scale(0.100000,-0.100000)"
fill="#000000" stroke="none">
<path d="M3385 6832 c-44 -41 -160 -146 -225 -202 -23 -20 -158 -141 -196
-175 -12 -11 -39 -35 -60 -54 -22 -19 -79 -71 -129 -115 -49 -45 -95 -85 -101
-91 -18 -15 -154 -137 -180 -160 -12 -11 -52 -47 -89 -80 -59 -52 -121 -108
-201 -180 -12 -11 -52 -47 -90 -80 -37 -33 -78 -69 -90 -80 -12 -11 -53 -48
-91 -82 -38 -34 -83 -74 -100 -90 -26 -24 -74 -66 -173 -153 -23 -20 -167
-149 -199 -179 -14 -12 -52 -46 -85 -75 -32 -28 -71 -62 -86 -76 -15 -14 -60
-54 -100 -90 -225 -201 -375 -395 -496 -640 -57 -115 -129 -299 -140 -360 -3
-14 -11 -47 -19 -75 -7 -27 -16 -68 -19 -90 -3 -22 -8 -51 -11 -65 -3 -14 -8
-47 -12 -75 -10 -69 -9 -1759 0 -1815 5 -25 10 -58 12 -75 7 -49 15 -87 27
-130 5 -22 12 -50 14 -62 2 -12 9 -35 15 -50 6 -16 9 -28 8 -28 -5 0 44 -141
52 -150 5 -5 9 -15 9 -23 0 -24 115 -247 176 -340 31 -48 81 -118 112 -157 70
-89 249 -266 327 -325 33 -25 61 -48 63 -52 2 -5 10 -8 17 -8 7 0 15 -4 17 -8
5 -13 130 -88 225 -136 107 -54 245 -109 302 -121 9 -2 28 -8 44 -14 15 -6 39
-13 54 -16 15 -2 49 -9 77 -14 66 -14 99 -19 166 -28 73 -10 2419 -10 2491 0
31 4 66 9 77 12 11 2 35 6 54 9 33 5 89 19 193 49 82 24 184 66 280 114 50 25
100 51 112 57 13 6 23 14 23 19 0 4 5 7 11 7 14 0 114 69 201 139 130 106 251
232 346 361 23 30 45 60 49 66 29 37 119 195 156 274 66 138 147 388 162 503
3 18 7 43 10 57 17 73 20 226 20 985 0 692 -4 950 -15 950 -1 0 -3 9 -4 20
-13 93 -60 287 -82 341 -8 19 -15 37 -15 41 -1 5 -5 17 -9 28 -137 353 -320
612 -621 875 -41 36 -79 69 -85 75 -6 5 -39 35 -73 65 -35 30 -73 64 -85 75
-118 106 -196 175 -278 247 -53 47 -107 96 -120 108 -13 12 -43 38 -66 58 -24
20 -56 48 -71 62 -37 33 -89 80 -191 170 -47 41 -90 80 -96 85 -15 14 -153
137 -175 156 -87 76 -147 129 -175 155 -18 17 -48 44 -66 59 -18 15 -56 48
-84 74 -28 25 -79 71 -114 101 -35 30 -73 64 -85 75 -11 11 -61 56 -110 99
-50 43 -120 106 -157 138 -37 33 -78 69 -90 80 -13 11 -38 33 -55 49 -18 16
-34 29 -35 29 -2 0 -25 -22 -53 -48z m67 -680 c2 -4 41 -41 88 -81 47 -41 87
-77 90 -80 3 -3 46 -42 95 -86 50 -44 95 -84 101 -90 6 -5 41 -37 79 -70 37
-33 83 -74 102 -92 19 -17 49 -44 67 -60 53 -45 188 -166 217 -193 14 -14 55
-50 90 -80 35 -30 71 -62 80 -70 41 -39 272 -246 369 -330 15 -13 127 -113
184 -165 46 -41 175 -157 194 -173 204 -177 314 -291 395 -405 60 -84 111
-166 124 -197 3 -8 18 -42 34 -75 25 -56 66 -167 75 -207 2 -10 6 -26 8 -35
19 -78 26 -117 33 -173 10 -84 10 -1607 0 -1680 -32 -222 -114 -443 -233 -621
-26 -41 -53 -79 -59 -85 -5 -7 -26 -31 -45 -55 -45 -56 -130 -140 -189 -187
-25 -20 -48 -39 -51 -42 -14 -14 -123 -82 -180 -113 -110 -60 -269 -116 -401
-142 -101 -20 -261 -23 -754 -11 -154 4 -287 6 -295 6 -8 0 -53 0 -100 0 -47
0 -110 0 -140 -1 -50 0 -119 0 -210 2 -19 0 -186 -3 -370 -6 -184 -3 -373 -7
-420 -8 -97 -1 -199 8 -268 24 -26 6 -56 13 -67 14 -93 14 -419 162 -433 197
-2 4 -8 8 -14 8 -29 0 -228 180 -308 279 -148 183 -275 452 -305 651 -2 14 -6
42 -9 62 -3 21 -9 55 -12 75 -6 47 -6 1569 1 1602 2 13 7 49 10 80 7 78 48
229 88 333 73 184 177 346 312 482 77 78 105 105 266 246 40 36 85 76 100 90
15 14 53 48 84 75 32 28 70 61 85 75 30 27 143 128 177 158 12 10 54 48 95 84
40 37 82 75 94 85 11 10 52 46 90 80 38 34 78 70 90 80 18 15 115 102 200 178
12 11 39 35 60 54 22 19 59 53 84 75 96 87 214 192 234 209 12 10 51 45 87 78
37 33 77 69 90 80 77 66 154 136 163 146 13 14 23 16 28 5z"/>
<path d="M3383 5776 c-23 -22 -67 -63 -99 -91 -31 -27 -72 -63 -90 -80 -30
-28 -82 -74 -224 -199 -30 -27 -91 -81 -135 -120 -43 -39 -99 -89 -124 -111
-25 -22 -58 -51 -72 -65 -15 -14 -55 -50 -90 -80 -35 -30 -73 -64 -84 -75 -12
-11 -55 -49 -96 -85 -41 -35 -90 -79 -109 -96 -19 -18 -48 -45 -65 -59 -68
-61 -162 -145 -186 -166 -45 -41 -171 -153 -191 -170 -157 -137 -255 -231
-315 -303 -58 -70 -157 -252 -179 -331 -1 -5 -12 -41 -23 -80 -11 -38 -23 -97
-27 -130 -10 -75 -11 -1562 -2 -1667 13 -141 58 -290 132 -433 28 -55 53 -102
57 -105 3 -3 21 -27 39 -55 53 -78 207 -225 300 -286 136 -88 238 -132 390
-165 89 -19 275 -32 288 -19 2 2 15 0 28 -5 13 -5 24 -6 24 -2 0 22 1903 20
1939 -3 6 -3 11 -3 11 2 0 4 24 8 53 9 308 4 665 199 847 464 13 19 27 37 31
40 13 11 89 159 118 232 26 65 49 146 67 233 2 11 7 34 11 50 9 41 11 1539 1
1629 -8 80 -13 109 -30 181 -7 28 -12 52 -13 55 0 3 -3 10 -6 15 -4 6 -12 28
-19 50 -55 175 -203 383 -386 542 -32 28 -71 62 -85 75 -14 12 -54 48 -88 78
-33 30 -81 73 -105 95 -23 22 -72 65 -107 95 -35 30 -78 69 -95 85 -18 17 -58
53 -89 80 -32 28 -67 59 -79 70 -12 11 -53 47 -91 80 -38 33 -80 71 -95 85
-14 14 -59 54 -100 90 -87 76 -132 115 -169 150 -31 29 -144 129 -181 160 -14
12 -56 49 -93 83 -38 34 -81 73 -97 87 -15 14 -45 41 -66 60 -103 93 -172 150
-180 149 -5 -1 -28 -20 -51 -43z m107 -717 c25 -22 81 -73 125 -112 82 -75
129 -117 280 -252 49 -44 99 -89 110 -100 12 -11 55 -49 95 -85 41 -36 81 -72
90 -80 9 -8 54 -49 100 -90 46 -41 95 -86 109 -99 14 -13 57 -51 95 -85 38
-33 81 -72 96 -86 15 -14 60 -54 100 -90 96 -85 198 -180 221 -205 55 -61 73
-86 103 -140 44 -79 73 -165 83 -245 5 -36 8 -382 7 -770 -1 -643 -3 -711 -19
-775 -51 -197 -168 -347 -340 -433 -107 -54 -168 -65 -345 -64 -158 0 -896 11
-907 13 -4 1 -12 0 -18 -1 -5 -1 -44 -1 -85 -1 -41 1 -93 1 -115 1 -127 -2
-764 -10 -840 -12 -98 -1 -121 2 -205 27 -187 56 -361 234 -422 428 -10 33
-21 79 -25 101 -9 64 -9 1423 0 1496 9 74 47 191 79 247 60 105 91 137 328
347 215 189 258 228 294 261 12 11 55 49 95 85 40 36 83 74 95 85 13 11 53 47
91 80 37 33 76 67 85 75 103 91 154 137 178 159 15 14 46 41 68 60 63 55 163
145 308 274 17 15 33 27 36 27 3 0 25 -18 50 -41z"/>
<path d="M3414 4747 c-6 -7 -39 -37 -73 -67 -35 -30 -73 -64 -86 -75 -43 -39
-101 -91 -185 -165 -47 -41 -87 -77 -90 -80 -3 -3 -41 -36 -85 -75 -44 -38
-85 -74 -91 -80 -75 -67 -388 -345 -430 -382 -261 -225 -299 -270 -330 -385
-9 -37 -11 -216 -9 -770 1 -398 6 -739 11 -758 13 -51 69 -149 110 -193 77
-81 151 -101 354 -97 180 4 1643 4 1865 0 83 -1 160 0 172 3 116 29 226 136
265 259 18 60 19 97 20 805 0 548 -3 751 -12 778 -34 103 -84 160 -312 357
-13 11 -54 47 -92 81 -39 34 -90 80 -115 102 -25 22 -58 51 -72 65 -15 14 -42
38 -60 54 -19 15 -68 58 -109 95 -76 68 -128 114 -241 213 -35 31 -76 67 -90
80 -14 12 -56 50 -94 83 -68 61 -108 96 -157 141 -29 26 -47 30 -64 11z m78
-744 c51 -45 44 -39 145 -130 43 -40 90 -82 104 -93 75 -66 144 -127 158 -140
9 -9 56 -52 106 -95 49 -44 95 -84 101 -90 6 -5 46 -41 90 -80 130 -115 123
-107 124 -172 0 -32 1 -65 1 -73 0 -8 0 -49 0 -90 0 -41 0 -82 0 -90 0 -8 0
-40 0 -70 0 -30 0 -90 0 -133 0 -42 -2 -81 -6 -86 -3 -5 -1 -12 4 -15 5 -4 5
-21 0 -43 -4 -21 -8 -39 -7 -40 6 -12 13 -93 9 -93 -3 0 -6 -31 -6 -70 0 -38
2 -70 5 -70 3 0 4 -28 2 -62 -1 -35 -2 -80 -3 -100 l0 -38 -67 0 c-86 -1
-1652 -1 -1673 0 -13 0 -17 11 -17 44 -1 24 -2 48 -3 52 -1 5 0 12 1 17 4 16
3 88 -2 92 -3 3 -2 20 1 38 4 18 4 49 0 69 -3 21 -4 40 -1 43 7 6 7 84 0 90
-3 3 -2 20 1 38 4 18 4 49 0 69 -3 21 -4 40 -1 43 7 6 7 84 0 90 -3 3 -2 20 1
38 4 18 4 49 0 70 -3 20 -2 40 2 43 5 3 7 9 4 15 -5 7 -6 64 -4 159 1 8 0 26
0 40 -4 78 0 87 47 128 26 22 59 50 73 63 29 27 149 134 224 200 61 54 110 97
139 124 12 11 53 47 91 80 37 33 82 74 99 90 18 17 61 55 96 85 35 30 72 63
82 73 25 24 32 22 80 -20z"/>
</g>
</svg>
